v 28 24 80
v 44 24 80
v 44 24 0
v 28 24 0
f 1 2 3 4
v 8 36 84
v 8 36 4
v 36 36 4
v 36 36 84
f 5 6 7 8
v 44 24 80
v 28 24 80
v 28 8 80
v 44 8 80
f 9 10 11 12
v 37 15 102
v 37 15 80
v 37 17 80
v 37 17 102
f 13 14 15 16
v 44 24 80
v 44 8 80
v 44 8 0
v 44 24 0
f 17 18 19 20
v 36 36 84
v 36 36 4
v 36 40 4
v 36 40 84
f 21 22 23 24
v 32 40 88
v 36 36 84
v 36 40 84
f 25 26 27
v 32 40 88
v 8 40 88
v 8 36 84
v 36 36 84
f 28 29 30 31
v 32 40 112
v 8 40 112
v 8 40 88
v 32 40 88
f 32 33 34 35
v 20 52 96
v 20 52 80
v 20 60 80
v 20 60 96
f 36 37 38 39
v 28 52 96
v 28 52 80
v 20 52 80
v 20 52 96
f 40 41 42 43
v 20 60 96
v 20 60 80
v 28 60 80
v 28 60 96
f 44 45 46 47
v 32 88 80
v 28 88 80
v 28 88 0
v 32 88 0
f 48 49 50 51
v 44 88 0
v 44 88 80
v 36 88 80
v 36 88 0
f 52 53 54 55
v 36 40 84
v 36 40 4
v 36 76 4
v 36 76 84
f 56 57 58 59
v 32 72 88
v 32 40 88
v 36 40 84
v 36 76 84
f 60 61 62 63
v 32 40 96
v 32 40 88
v 32 72 88
v 32 72 96
f 64 65 66 67
v 36 88 0
v 36 88 80
v 32 88 80
v 32 88 0
f 68 69 70 71
v 12 50 104
v 12 62 104
v 16 62 104
v 16 50 104
f 72 73 74 75
v 16 50 100
v 16 62 100
v 12 62 100
v 12 50 100
f 76 77 78 79
v 12 50 104
v 12 50 100
v 12 62 100
v 12 62 104
f 80 81 82 83
v 12 62 104
v 12 62 100
v 16 62 100
v 16 62 104
f 84 85 86 87
v 16 50 104
v 16 50 100
v 12 50 100
v 12 50 104
f 88 89 90 91
v 16 40 112
v 16 48 120
v 8 40 112
f 92 93 94
v 32 48 104
v 32 40 104
v 32 40 96
v 32 48 96
f 95 96 97 98
v 32 40 112
v 32 40 104
v 32 72 104
v 32 72 112
f 99 100 101 102
v 32 72 104
v 32 64 104
v 32 64 96
v 32 72 96
f 103 104 105 106
v 28 64 104
v 28 48 104
v 16 48 104
v 16 64 104
f 107 108 109 110
v 16 56 100
v 16 56 96
v 16 64 96
v 16 64 100
f 111 112 113 114
v 16 48 104
v 16 48 100
v 16 52 100
v 16 52 104
f 115 116 117 118
v 16 48 100
v 16 48 96
v 16 56 96
v 16 56 100
f 119 120 121 122
v 16 60 104
v 16 60 100
v 16 64 100
v 16 64 104
f 123 124 125 126
v 16 64 104
v 16 64 96
v 28 64 96
v 28 64 104
f 127 128 129 130
v 16 48 96
v 16 48 104
v 28 48 104
v 28 48 96
f 131 132 133 134
v 16 40 112
v 28 40 112
v 28 44 116
v 24 48 120
v 16 48 120
f 135 136 137 138 139
v 28 68 116
v 24 64 120
v 24 48 120
v 28 44 116
f 140 141 142 143
v 28 61 96
v 28 64 96
v 16 64 96
v 16 61 96
f 144 145 146 147
v 28 48 96
v 28 51 96
v 16 51 96
v 16 48 96
f 148 149 150 151
v 19 61 96
v 16 61 96
v 16 51 96
v 19 51 96
f 152 153 154 155
v 24 46 132
v 24 46 118
v 24 48 118
v 24 48 132
f 156 157 158 159
v 24 64 132
v 24 64 118
v 24 66 118
v 24 66 132
f 160 161 162 163
v 28 60 96
v 28 61 96
v 20 61 96
v 20 60 96
f 164 165 166 167
v 28 51 96
v 28 52 96
v 20 52 96
v 20 51 96
f 168 169 170 171
v 20 61 96
v 19 61 96
v 19 51 96
v 20 51 96
f 172 173 174 175
v 32 64 104
v 32 48 104
v 28 48 104
v 28 64 104
f 176 177 178 179
v 28 48 104
v 32 48 104
v 32 48 96
v 28 48 96
f 180 181 182 183
v 28 64 104
v 28 64 96
v 32 64 96
v 32 64 104
f 184 185 186 187
v 28 40 112
v 32 40 112
v 28 44 116
f 188 189 190
v 32 72 112
v 28 68 116
v 28 44 116
v 32 40 112
f 191 192 193 194
v 32 61 96
v 29 61 96
v 29 51 96
v 32 51 96
f 195 196 197 198
v 32 61 96
v 32 64 96
v 28 64 96
v 28 61 96
f 199 200 201 202
v 32 48 96
v 32 51 96
v 28 51 96
v 28 48 96
f 203 204 205 206
v 30 54 102
v 30 55 102
v 30 55 104
v 30 54 104
f 207 208 209 210
v 30 57 102
v 30 58 102
v 30 58 104
v 30 57 104
f 211 212 213 214
v 29 61 96
v 28 61 96
v 28 51 96
v 29 51 96
f 215 216 217 218
v 32 104 80
v 28 104 80
v 28 88 80
v 32 88 80
f 219 220 221 222
v 28 143 64
v 32 143 64
v 32 136 64
v 28 136 64
f 223 224 225 226
v 28 143 56
v 28 136 56
v 32 136 56
v 32 143 56
f 227 228 229 230
v 28 136 64
v 28 136 56
v 28 143 56
v 28 143 64
f 231 232 233 234
v 28 143 64
v 28 143 56
v 32 143 56
v 32 143 64
f 235 236 237 238
v 32 136 64
v 32 136 56
v 28 136 56
v 28 136 64
f 239 240 241 242
v 31 136 60
v 31 143 60
v 28 143 60
v 28 136 60
f 243 244 245 246
v 32 136 56
v 32 143 56
v 28 143 56
v 28 136 56
f 247 248 249 250
v 31 136 59
v 31 143 59
v 31 143 60
v 31 136 60
f 251 252 253 254
v 44 88 80
v 44 104 80
v 32 104 80
v 32 88 80
f 255 256 257 258
v 37 95 102
v 37 95 80
v 37 97 80
v 37 97 102
f 259 260 261 262
v 44 88 80
v 44 88 0
v 44 104 0
v 44 104 80
f 263 264 265 266
v 44 104 72
v 44 104 64
v 56 104 64
v 56 104 72
f 267 268 269 270
v 32 136 64
v 32 143 64
v 48 143 64
v 48 136 64
f 271 272 273 274
v 48 136 56
v 48 143 56
v 32 143 56
v 32 136 56
f 275 276 277 278
v 48 136 64
v 48 136 56
v 32 136 56
v 32 136 64
f 279 280 281 282
v 48 143 64
v 32 143 64
v 32 143 56
v 48 143 56
f 283 284 285 286
v 48 136 64
v 48 144 64
v 56 144 64
v 56 136 64
f 287 288 289 290
v 56 136 56
v 56 144 56
v 48 144 56
v 48 136 56
f 291 292 293 294
v 56 136 64
v 56 136 56
v 48 136 56
v 48 136 64
f 295 296 297 298
v 56 144 64
v 56 144 56
v 56 136 56
v 56 136 64
f 299 300 301 302
v 48 143 64
v 48 143 56
v 48 144 56
v 48 144 64
f 303 304 305 306
v 16 160 72
v 16 152 72
v 8 152 72
v 8 160 72
f 307 308 309 310
v 8 152 72
v 8 152 48
v 8 160 48
v 8 160 72
f 311 312 313 314
v 16 160 72
v 16 160 64
v 16 152 64
v 16 152 72
f 315 316 317 318
v 8 160 72
v 8 160 48
v 16 160 48
v 16 160 72
f 319 320 321 322
v 16 152 72
v 16 152 48
v 8 152 48
v 8 152 72
f 323 324 325 326
v 8 160 72
v 8 152 72
v 8 152 48
v 8 160 48
f 327 328 329 330
v 22 160 64
v 22 152 64
v 16 152 64
v 16 160 64
f 331 332 333 334
v 22 152 56
v 22 160 56
v 16 160 56
v 16 152 56
f 335 336 337 338
v 16 160 64
v 16 160 56
v 22 160 56
v 22 160 64
f 339 340 341 342
v 22 152 64
v 22 152 56
v 16 152 56
v 16 152 64
f 343 344 345 346
v 18 152 64
v 22 152 64
v 22 152 56
v 18 152 56
f 347 348 349 350
v 18 160 64
v 18 160 56
v 22 160 56
v 22 160 64
f 351 352 353 354
v 22 176 64
v 22 168 64
v 16 168 64
v 16 176 64
f 355 356 357 358
v 16 176 64
v 16 176 48
v 22 176 48
v 22 176 64
f 359 360 361 362
v 22 168 64
v 22 168 48
v 16 168 48
v 16 168 64
f 363 364 365 366
v 16 168 64
v 16 168 48
v 16 176 48
v 16 176 64
f 367 368 369 370
v 22 160 68
v 24 162 68
v 24 150 68
v 22 152 68
f 371 372 373 374
v 32 162 68
v 32 150 68
v 24 150 68
v 24 162 68
f 375 376 377 378
v 32 150 56
v 32 162 56
v 24 162 56
v 24 150 56
f 379 380 381 382
v 22 152 56
v 24 150 56
v 24 162 56
v 22 160 56
f 383 384 385 386
v 22 152 68
v 22 152 64
v 22 160 64
v 22 160 68
f 387 388 389 390
v 24 150 68
v 24 150 56
v 22 152 56
v 22 152 68
f 391 392 393 394
v 22 160 68
v 22 160 56
v 24 162 56
v 24 162 68
f 395 396 397 398
v 32 150 68
v 32 150 56
v 24 150 56
v 24 150 68
f 399 400 401 402
v 24 162 68
v 24 162 56
v 32 162 56
v 32 162 68
f 403 404 405 406
v 24 176 64
v 24 168 64
v 22 168 64
v 22 176 64
f 407 408 409 410
v 22 176 64
v 22 176 48
v 24 176 48
v 24 176 64
f 411 412 413 414
v 24 168 64
v 24 168 48
v 22 168 48
v 22 168 64
f 415 416 417 418
v 32 144 68
v 32 152 68
v 56 152 68
v 56 144 68
f 419 420 421 422
v 32 160 68
v 32 168 68
v 56 168 68
v 56 160 68
f 423 424 425 426
v 56 160 68
v 56 152 68
v 48 152 68
v 48 160 68
f 427 428 429 430
v 40 160 68
v 40 152 68
v 32 152 68
v 32 160 68
f 431 432 433 434
v 48 160 68
v 48 152 68
v 40 152 68
v 40 160 68
f 435 436 437 438
v 32 144 56
v 56 144 56
v 56 168 56
v 32 168 56
f 439 440 441 442
v 48 144 64
v 48 144 56
v 40 144 56
v 40 144 64
f 443 444 445 446
v 56 152 64
v 56 152 56
v 56 151 56
v 56 151 64
f 447 448 449 450
v 32 144 68
v 32 144 56
v 32 150 56
v 32 150 68
f 451 452 453 454
v 32 162 68
v 32 162 56
v 32 168 56
v 32 168 68
f 455 456 457 458
v 56 152 68
v 56 160 68
v 56 160 64
v 56 152 64
f 459 460 461 462
v 56 168 68
v 56 168 56
v 56 160 56
v 56 160 68
f 463 464 465 466
v 56 152 68
v 56 152 64
v 56 144 64
v 56 144 68
f 467 468 469 470
v 40 144 64
v 40 144 56
v 32 144 56
v 32 144 64
f 471 472 473 474
v 32 144 64
v 32 144 68
v 56 144 68
v 56 144 64
f 475 476 477 478
v 56 168 64
v 56 168 68
v 32 168 68
v 32 168 64
f 479 480 481 482
v 40 184 64
v 40 176 64
v 32 176 64
v 32 184 64
f 483 484 485 486
v 56 184 64
v 56 176 64
v 48 176 64
v 48 184 64
f 487 488 489 490
v 56 176 64
v 56 168 64
v 32 168 64
v 32 176 64
f 491 492 493 494
v 48 176 64
v 40 176 64
v 40 184 64
v 48 184 64
f 495 496 497 498
v 56 168 56
v 56 184 56
v 32 184 56
v 32 168 56
f 499 500 501 502
v 32 168 64
v 32 168 56
v 32 176 56
v 32 176 64
f 503 504 505 506
v 40 184 64
v 40 184 56
v 48 184 56
v 48 184 64
f 507 508 509 510
v 32 176 64
v 32 176 56
v 32 184 56
v 32 184 64
f 511 512 513 514
v 56 176 64
v 56 176 56
v 56 168 56
v 56 168 64
f 515 516 517 518
v 32 184 64
v 32 184 56
v 40 184 56
v 40 184 64
f 519 520 521 522
v 48 184 64
v 48 184 56
v 56 184 56
v 56 184 64
f 523 524 525 526
v 80 152 48
v 80 160 48
v 84 160 48
v 84 152 48
f 527 528 529 530
v 84 152 48
v 84 152 40
v 80 152 40
v 80 152 48
f 531 532 533 534
v 80 160 48
v 80 160 40
v 84 160 40
v 84 160 48
f 535 536 537 538
v 80 160 40
v 80 152 40
v 84 152 40
v 84 160 40
f 539 540 541 542
v 82 152 40
v 82 152 48
v 84 152 48
v 84 152 40
f 543 544 545 546
v 82 160 48
v 82 160 40
v 84 160 40
v 84 160 48
f 547 548 549 550
v 84 152 48
v 84 160 48
v 88 160 48
v 88 152 48
f 551 552 553 554
v 84 152 48
v 84 152 40
v 84 160 40
v 84 160 48
f 555 556 557 558
v 88 152 48
v 88 152 40
v 84 152 40
v 84 152 48
f 559 560 561 562
v 84 160 48
v 84 160 40
v 88 160 40
v 88 160 48
f 563 564 565 566
v 84 160 40
v 84 152 40
v 88 152 40
v 88 160 40
f 567 568 569 570
v 84 152 48
v 86 152 48
v 86 152 40
v 84 152 40
f 571 572 573 574
v 84 160 48
v 84 160 40
v 86 160 40
v 86 160 48
f 575 576 577 578
v 56 104 72
v 56 104 64
v 88 104 64
v 88 104 72
f 579 580 581 582
v 72 136 64
v 72 144 64
v 80 144 64
v 80 136 64
f 583 584 585 586
v 72 136 64
v 72 136 56
v 72 144 56
v 72 144 64
f 587 588 589 590
v 80 144 64
v 80 144 56
v 80 136 56
v 80 136 64
f 591 592 593 594
v 80 136 64
v 80 136 56
v 72 136 56
v 72 136 64
f 595 596 597 598
v 72 143 56
v 72 136 56
v 80 136 56
v 80 143 56
f 599 600 601 602
v 80 143 56
v 80 144 56
v 72 144 56
v 72 143 56
f 603 604 605 606
v 56 144 64
v 56 151 64
v 64 151 64
v 64 144 64
f 607 608 609 610
v 64 144 56
v 64 151 56
v 56 151 56
v 56 144 56
f 611 612 613 614
v 64 151 64
v 64 151 56
v 64 144 56
v 64 144 64
f 615 616 617 618
v 56 151 64
v 56 151 56
v 64 151 56
v 64 151 64
f 619 620 621 622
v 64 144 64
v 64 144 56
v 56 144 56
v 56 144 64
f 623 624 625 626
v 80 144 68
v 64 144 68
v 64 152 68
v 80 152 68
f 627 628 629 630
v 64 144 56
v 80 144 56
v 80 152 56
v 64 152 56
f 631 632 633 634
v 72 144 64
v 72 144 56
v 64 144 56
v 64 144 64
f 635 636 637 638
v 64 144 68
v 64 144 56
v 64 152 56
v 64 152 68
f 639 640 641 642
v 80 152 68
v 80 152 56
v 80 144 56
v 80 144 68
f 643 644 645 646
v 80 144 68
v 80 144 64
v 64 144 64
v 64 144 68
f 647 648 649 650
v 80 152 64
v 80 160 64
v 88 160 64
v 88 152 64
f 651 652 653 654
v 80 160 56
v 80 152 56
v 87 152 56
v 87 160 56
f 655 656 657 658
v 88 152 64
v 88 152 56
v 80 152 56
v 80 152 64
f 659 660 661 662
v 80 160 64
v 80 160 56
v 88 160 56
v 88 160 64
f 663 664 665 666
v 83 152 56
v 85 152 56
v 85 160 56
v 83 160 56
f 667 668 669 670
v 83 152 64
v 83 160 64
v 85 160 64
v 85 152 64
f 671 672 673 674
v 87 160 56
v 87 152 56
v 88 152 56
v 88 160 56
f 675 676 677 678
v 56 152 64
v 56 160 64
v 64 160 64
v 64 152 64
f 679 680 681 682
v 56 160 56
v 56 152 56
v 64 152 56
v 64 160 56
f 683 684 685 686
v 56 160 64
v 56 160 56
v 64 160 56
v 64 160 64
f 687 688 689 690
v 64 152 64
v 64 152 56
v 56 152 56
v 56 152 64
f 691 692 693 694
v 58 152 64
v 62 152 64
v 62 152 56
v 58 152 56
f 695 696 697 698
v 58 160 64
v 58 160 56
v 62 160 56
v 62 160 64
f 699 700 701 702
v 80 152 68
v 64 152 68
v 64 160 68
v 80 160 68
f 703 704 705 706
v 64 152 56
v 80 152 56
v 80 160 56
v 64 160 56
f 707 708 709 710
v 64 160 68
v 64 152 68
v 64 152 64
v 64 160 64
f 711 712 713 714
v 80 152 68
v 80 160 68
v 80 160 64
v 80 152 64
f 715 716 717 718
v 80 168 68
v 80 160 68
v 71 160 68
v 71 168 68
f 719 720 721 722
v 71 160 56
v 80 160 56
v 80 168 56
v 71 168 56
f 723 724 725 726
v 80 168 68
v 80 168 56
v 80 160 56
v 80 160 68
f 727 728 729 730
v 71 168 68
v 71 168 56
v 80 168 56
v 80 168 68
f 731 732 733 734
v 71 161 58
v 71 161 56
v 71 168 56
v 71 168 58
f 735 736 737 738
v 71 168 65
v 71 161 65
v 71 161 58
v 71 168 58
f 739 740 741 742
v 71 160 68
v 64 160 68
v 64 161 68
v 71 161 68
f 743 744 745 746
v 64 161 56
v 64 160 56
v 71 160 56
v 71 161 56
f 747 748 749 750
v 64 160 68
v 64 160 56
v 64 161 56
v 64 161 68
f 751 752 753 754
v 71 161 58
v 64 161 58
v 64 161 56
v 71 161 56
f 755 756 757 758
v 71 161 65
v 64 161 65
v 64 161 58
v 71 161 58
f 759 760 761 762
v 71 168 68
v 71 161 68
v 68 161 68
v 68 168 68
f 763 764 765 766
v 71 161 56
v 71 168 56
v 68 168 56
v 68 161 56
f 767 768 769 770
v 68 166 64
v 68 164 64
v 68 164 58
v 68 166 58
f 771 772 773 774
v 68 168 68
v 68 168 56
v 71 168 56
v 71 168 68
f 775 776 777 778
v 71 161 65
v 71 161 58
v 68 161 58
v 68 161 65
f 779 780 781 782
v 71 168 65
v 71 168 58
v 71 161 58
v 71 161 65
f 783 784 785 786
v 68 161 68
v 64 161 68
v 64 164 68
v 68 164 68
f 787 788 789 790
v 68 164 56
v 64 164 56
v 64 161 56
v 68 161 56
f 791 792 793 794
v 68 164 64
v 66 164 64
v 66 164 58
v 68 164 58
f 795 796 797 798
v 64 161 68
v 64 161 56
v 64 164 56
v 64 164 68
f 799 800 801 802
v 68 161 65
v 68 161 58
v 64 161 58
v 64 161 65
f 803 804 805 806
v 68 164 68
v 64 164 68
v 64 168 68
v 68 168 68
f 807 808 809 810
v 68 168 56
v 64 168 56
v 64 164 56
v 68 164 56
f 811 812 813 814
v 64 164 68
v 64 164 56
v 64 168 56
v 64 168 68
f 815 816 817 818
v 64 168 68
v 64 168 56
v 68 168 56
v 68 168 68
f 819 820 821 822
v 80 200 64
v 80 208 64
v 88 208 64
v 88 200 64
f 823 824 825 826
v 64 200 64
v 64 208 64
v 80 208 64
v 80 200 64
f 827 828 829 830
v 80 208 56
v 80 200 56
v 88 200 56
v 88 208 56
f 831 832 833 834
v 64 200 56
v 80 200 56
v 80 208 56
v 64 208 56
f 835 836 837 838
v 64 200 64
v 64 200 56
v 64 208 56
v 64 208 64
f 839 840 841 842
v 80 208 64
v 80 208 56
v 88 208 56
v 88 208 64
f 843 844 845 846
v 88 200 64
v 88 200 56
v 80 200 56
v 80 200 64
f 847 848 849 850
v 82 208 64
v 82 208 56
v 86 208 56
v 86 208 64
f 851 852 853 854
v 82 200 64
v 86 200 64
v 86 200 56
v 82 200 56
f 855 856 857 858
v 88 200 57
v 88 208 57
v 88 208 56
v 88 200 56
f 859 860 861 862
v 60 176 64
v 56 176 64
v 56 184 64
v 60 184 64
f 863 864 865 866
v 60 176 56
v 60 184 56
v 56 184 56
v 56 176 56
f 867 868 869 870
v 60 184 64
v 60 184 56
v 60 176 56
v 60 176 64
f 871 872 873 874
v 60 176 64
v 60 176 56
v 56 176 56
v 56 176 64
f 875 876 877 878
v 56 184 64
v 56 184 56
v 60 184 56
v 60 184 64
f 879 880 881 882
v 57 184 60
v 57 176 60
v 60 176 60
v 60 184 60
f 883 884 885 886
v 56 184 56
v 56 176 56
v 60 176 56
v 60 184 56
f 887 888 889 890
v 57 184 59
v 57 176 59
v 57 176 60
v 57 184 60
f 891 892 893 894
v 64 196 64
v 64 200 64
v 80 200 64
v 80 196 64
f 895 896 897 898
v 64 196 56
v 80 196 56
v 80 200 56
v 64 200 56
f 899 900 901 902
v 64 196 64
v 64 196 56
v 64 200 56
v 64 200 64
f 903 904 905 906
v 80 200 64
v 80 200 56
v 80 196 56
v 80 196 64
f 907 908 909 910
v 80 196 64
v 80 196 56
v 64 196 56
v 64 196 64
f 911 912 913 914
v 80 196 60
v 80 199 60
v 64 199 60
v 64 196 60
f 915 916 917 918
v 64 200 56
v 64 196 56
v 80 196 56
v 80 200 56
f 919 920 921 922
v 80 199 60
v 80 199 59
v 64 199 59
v 64 199 60
f 923 924 925 926
v 80 208 68
v 64 208 68
v 64 217 68
v 80 217 68
f 927 928 929 930
v 64 208 56
v 80 208 56
v 80 216 56
v 64 216 56
f 931 932 933 934
v 64 208 64
v 64 208 56
v 64 217 56
v 64 217 64
f 935 936 937 938
v 80 217 64
v 80 217 56
v 80 208 56
v 80 208 64
f 939 940 941 942
v 64 208 68
v 64 208 64
v 64 217 64
v 64 217 68
f 943 944 945 946
v 80 217 68
v 80 217 64
v 80 208 64
v 80 208 68
f 947 948 949 950
v 71 217 58
v 64 217 58
v 64 217 56
v 71 217 56
f 951 952 953 954
v 80 208 68
v 80 208 64
v 64 208 64
v 64 208 68
f 955 956 957 958
v 80 216 56
v 80 217 56
v 64 217 56
v 64 216 56
f 959 960 961 962
v 71 217 65
v 64 217 65
v 64 217 58
v 71 217 58
f 963 964 965 966
v 71 217 68
v 71 224 68
v 80 224 68
v 80 217 68
f 967 968 969 970
v 80 224 64
v 80 224 56
v 80 217 56
v 80 217 64
f 971 972 973 974
v 71 224 64
v 71 224 56
v 80 224 56
v 80 224 64
f 975 976 977 978
v 80 224 68
v 80 224 64
v 80 217 64
v 80 217 68
f 979 980 981 982
v 71 224 68
v 71 224 64
v 80 224 64
v 80 224 68
f 983 984 985 986
v 71 217 58
v 71 217 56
v 71 224 56
v 71 224 58
f 987 988 989 990
v 71 224 56
v 71 217 56
v 80 217 56
v 80 224 56
f 991 992 993 994
v 71 224 65
v 71 217 65
v 71 217 58
v 71 224 58
f 995 996 997 998
v 69 217 68
v 69 224 68
v 71 224 68
v 71 217 68
f 999 1000 1001 1002
v 69 222 64
v 69 220 64
v 69 220 58
v 69 222 58
f 1003 1004 1005 1006
v 69 224 64
v 69 224 56
v 71 224 56
v 71 224 64
f 1007 1008 1009 1010
v 69 224 68
v 69 224 64
v 71 224 64
v 71 224 68
f 1011 1012 1013 1014
v 69 224 56
v 69 217 56
v 71 217 56
v 71 224 56
f 1015 1016 1017 1018
v 71 217 65
v 71 217 58
v 69 217 58
v 69 217 65
f 1019 1020 1021 1022
v 71 224 65
v 71 224 58
v 71 217 58
v 71 217 65
f 1023 1024 1025 1026
v 69 217 68
v 64 217 68
v 64 220 68
v 69 220 68
f 1027 1028 1029 1030
v 69 220 64
v 67 220 64
v 67 220 58
v 69 220 58
f 1031 1032 1033 1034
v 64 217 64
v 64 217 56
v 64 220 56
v 64 220 64
f 1035 1036 1037 1038
v 64 217 68
v 64 217 64
v 64 220 64
v 64 220 68
f 1039 1040 1041 1042
v 64 220 56
v 64 217 56
v 69 217 56
v 69 220 56
f 1043 1044 1045 1046
v 69 217 65
v 69 217 58
v 64 217 58
v 64 217 65
f 1047 1048 1049 1050
v 64 220 68
v 64 224 68
v 69 224 68
v 69 220 68
f 1051 1052 1053 1054
v 64 220 64
v 64 220 56
v 64 224 56
v 64 224 64
f 1055 1056 1057 1058
v 64 224 64
v 64 224 56
v 69 224 56
v 69 224 64
f 1059 1060 1061 1062
v 64 220 68
v 64 220 64
v 64 224 64
v 64 224 68
f 1063 1064 1065 1066
v 64 224 68
v 64 224 64
v 69 224 64
v 69 224 68
f 1067 1068 1069 1070
v 69 224 56
v 64 224 56
v 64 220 56
v 69 220 56
f 1071 1072 1073 1074
v 88 152 56
v 88 152 48
v 88 160 48
v 88 160 56
f 1075 1076 1077 1078
v 96 160 56
v 96 160 40
v 96 152 40
v 96 152 56
f 1079 1080 1081 1082
v 96 152 56
v 96 152 40
v 88 152 40
v 88 152 56
f 1083 1084 1085 1086
v 88 160 56
v 88 160 40
v 96 160 40
v 96 160 56
f 1087 1088 1089 1090
v 88 160 41
v 88 152 41
v 96 152 41
v 96 160 41
f 1091 1092 1093 1094
v 91 160 45
v 91 160 43
v 93 160 43
v 93 160 45
f 1095 1096 1097 1098
v 136 224 24
v 136 248 24
v 136 248 7
v 136 224 7
f 1099 1100 1101 1102
v 112 224 8
v 112 224 24
v 136 224 24
v 136 224 7
f 1103 1104 1105 1106
v 136 248 7
v 136 248 24
v 112 248 24
v 112 248 8
f 1107 1108 1109 1110
v 112 224 24
v 112 248 24
v 136 248 24
v 136 224 24
f 1111 1112 1113 1114
v 112 248 24
v 112 224 24
v 112 224 8
v 112 248 8
f 1115 1116 1117 1118
v 136 224 7
v 136 248 7
v 112 248 8
v 112 224 8
f 1119 1120 1121 1122
v 144 16 72
v 92 72 72
v 92 72 64
v 144 16 64
f 1123 1124 1125 1126
v 120 72 64
v 120 64 64
v 104 64 64
v 104 72 64
f 1127 1128 1129 1130
v 104 72 56
v 104 64 56
v 120 64 56
v 120 72 56
f 1131 1132 1133 1134
v 104 64 64
v 104 64 56
v 104 72 56
v 104 72 64
f 1135 1136 1137 1138
v 120 72 64
v 120 72 56
v 120 64 56
v 120 64 64
f 1139 1140 1141 1142
v 112 72 64
v 112 72 56
v 120 72 56
v 120 72 64
f 1143 1144 1145 1146
v 120 64 64
v 120 64 56
v 104 64 56
v 104 64 64
f 1147 1148 1149 1150
v 92 72 72
v 88 76 72
v 88 76 64
v 92 72 64
f 1151 1152 1153 1154
v 112 80 64
v 112 72 64
v 104 72 64
v 104 80 64
f 1155 1156 1157 1158
v 104 80 56
v 104 72 56
v 112 72 56
v 112 80 56
f 1159 1160 1161 1162
v 112 80 64
v 112 80 56
v 112 72 56
v 112 72 64
f 1163 1164 1165 1166
v 104 72 64
v 104 72 56
v 104 80 56
v 104 80 64
f 1167 1168 1169 1170
v 112 74 64
v 112 78 64
v 112 78 56
v 112 74 56
f 1171 1172 1173 1174
v 104 74 64
v 104 74 56
v 104 78 56
v 104 78 64
f 1175 1176 1177 1178
v 104 80 56
v 120 80 56
v 120 96 56
v 104 96 56
f 1179 1180 1181 1182
v 104 80 64
v 104 96 64
v 120 96 64
v 120 80 64
f 1183 1184 1185 1186
v 120 96 64
v 120 96 56
v 120 80 56
v 120 80 64
f 1187 1188 1189 1190
v 112 96 64
v 112 96 56
v 120 96 56
v 120 96 64
f 1191 1192 1193 1194
v 120 80 64
v 120 80 56
v 112 80 56
v 112 80 64
f 1195 1196 1197 1198
v 104 96 64
v 104 95 64
v 104 95 56
v 104 96 56
f 1199 1200 1201 1202
v 104 88 64
v 104 87 64
v 104 87 56
v 104 88 56
f 1203 1204 1205 1206
v 120 88 56
v 112 88 56
v 112 80 56
v 120 80 56
f 1207 1208 1209 1210
v 120 88 64
v 120 88 56
v 120 80 56
v 120 80 64
f 1211 1212 1213 1214
v 120 80 64
v 120 80 56
v 112 80 56
v 112 80 64
f 1215 1216 1217 1218
v 104 80 64
v 96 80 64
v 96 87 64
v 104 87 64
f 1219 1220 1221 1222
v 104 80 56
v 104 87 56
v 96 87 56
v 96 80 56
f 1223 1224 1225 1226
v 96 80 64
v 96 80 56
v 96 87 56
v 96 87 64
f 1227 1228 1229 1230
v 104 80 64
v 104 80 56
v 96 80 56
v 96 80 64
f 1231 1232 1233 1234
v 104 87 64
v 96 87 64
v 96 87 56
v 104 87 56
f 1235 1236 1237 1238
v 104 88 64
v 96 88 64
v 96 95 64
v 104 95 64
f 1239 1240 1241 1242
v 104 88 56
v 104 95 56
v 96 95 56
v 96 88 56
f 1243 1244 1245 1246
v 96 88 64
v 96 88 56
v 96 95 56
v 96 95 64
f 1247 1248 1249 1250
v 104 88 64
v 104 88 56
v 96 88 56
v 96 88 64
f 1251 1252 1253 1254
v 104 95 64
v 96 95 64
v 96 95 56
v 104 95 56
f 1255 1256 1257 1258
v 104 104 64
v 104 96 64
v 96 96 64
v 96 104 64
f 1259 1260 1261 1262
v 103 96 56
v 103 104 56
v 96 104 56
v 96 96 56
f 1263 1264 1265 1266
v 96 96 64
v 96 96 56
v 96 104 56
v 96 104 64
f 1267 1268 1269 1270
v 104 96 64
v 104 96 56
v 96 96 56
v 96 96 64
f 1271 1272 1273 1274
v 104 104 64
v 104 104 56
v 104 103 56
v 104 103 64
f 1275 1276 1277 1278
v 104 96 56
v 104 104 56
v 103 104 56
v 103 96 56
f 1279 1280 1281 1282
v 96 104 64
v 96 112 64
v 104 112 64
v 104 104 64
f 1283 1284 1285 1286
v 96 112 64
v 96 104 64
v 88 104 64
v 88 112 64
f 1287 1288 1289 1290
v 96 112 56
v 96 104 56
v 104 104 56
v 104 112 56
f 1291 1292 1293 1294
v 88 112 56
v 88 104 56
v 96 104 56
v 96 112 56
f 1295 1296 1297 1298
v 96 112 64
v 96 112 56
v 104 112 56
v 104 112 64
f 1299 1300 1301 1302
v 88 104 64
v 88 104 56
v 88 112 56
v 88 112 64
f 1303 1304 1305 1306
v 88 112 64
v 88 112 56
v 96 112 56
v 96 112 64
f 1307 1308 1309 1310
v 96 104 64
v 96 104 56
v 88 104 56
v 88 104 64
f 1311 1312 1313 1314
v 120 96 64
v 120 112 64
v 136 112 64
v 136 96 64
f 1315 1316 1317 1318
v 136 96 56
v 136 112 56
v 120 112 56
v 120 96 56
f 1319 1320 1321 1322
v 120 96 64
v 120 96 56
v 120 104 56
v 120 104 64
f 1323 1324 1325 1326
v 136 112 64
v 136 112 56
v 136 96 56
v 136 96 64
f 1327 1328 1329 1330
v 128 112 64
v 128 112 56
v 136 112 56
v 136 112 64
f 1331 1332 1333 1334
v 136 96 64
v 136 96 56
v 120 96 56
v 120 96 64
f 1335 1336 1337 1338
v 112 103 64
v 112 96 64
v 104 96 64
v 104 103 64
f 1339 1340 1341 1342
v 112 96 56
v 112 103 56
v 104 103 56
v 104 96 56
f 1343 1344 1345 1346
v 112 103 64
v 112 103 56
v 112 96 56
v 112 96 64
f 1347 1348 1349 1350
v 104 103 64
v 104 103 56
v 112 103 56
v 112 103 64
f 1351 1352 1353 1354
v 104 104 64
v 104 112 64
v 120 112 64
v 120 104 64
f 1355 1356 1357 1358
v 104 112 56
v 104 104 56
v 120 104 56
v 120 112 56
f 1359 1360 1361 1362
v 104 112 64
v 104 112 56
v 120 112 56
v 120 112 64
f 1363 1364 1365 1366
v 120 104 64
v 120 104 56
v 104 104 56
v 104 104 64
f 1367 1368 1369 1370
v 112 120 64
v 108 120 64
v 108 128 64
v 112 128 64
f 1371 1372 1373 1374
v 108 128 56
v 108 120 56
v 112 120 56
v 112 128 56
f 1375 1376 1377 1378
v 108 120 64
v 108 120 56
v 108 128 56
v 108 128 64
f 1379 1380 1381 1382
v 108 128 64
v 108 128 56
v 112 128 56
v 112 128 64
f 1383 1384 1385 1386
v 112 120 64
v 112 120 56
v 108 120 56
v 108 120 64
f 1387 1388 1389 1390
v 111 120 60
v 111 128 60
v 108 128 60
v 108 120 60
f 1391 1392 1393 1394
v 112 120 56
v 112 128 56
v 108 128 56
v 108 120 56
f 1395 1396 1397 1398
v 111 120 59
v 111 128 59
v 111 128 60
v 111 120 60
f 1399 1400 1401 1402
v 104 144 64
v 104 140 64
v 96 140 64
v 96 144 64
f 1403 1404 1405 1406
v 96 140 56
v 104 140 56
v 104 144 56
v 96 144 56
f 1407 1408 1409 1410
v 104 144 64
v 104 144 56
v 104 140 56
v 104 140 64
f 1411 1412 1413 1414
v 96 140 64
v 96 140 56
v 96 144 56
v 96 144 64
f 1415 1416 1417 1418
v 104 140 64
v 104 140 56
v 96 140 56
v 96 140 64
f 1419 1420 1421 1422
v 104 143 60
v 96 143 60
v 96 140 60
v 104 140 60
f 1423 1424 1425 1426
v 104 144 56
v 96 144 56
v 96 140 56
v 104 140 56
f 1427 1428 1429 1430
v 104 143 59
v 96 143 59
v 96 143 60
v 104 143 60
f 1431 1432 1433 1434
v 128 120 64
v 128 112 64
v 120 112 64
v 120 120 64
f 1435 1436 1437 1438
v 128 112 56
v 128 120 56
v 120 120 56
v 120 112 56
f 1439 1440 1441 1442
v 128 120 64
v 128 120 56
v 128 112 56
v 128 112 64
f 1443 1444 1445 1446
v 120 112 64
v 120 112 56
v 120 120 56
v 120 120 64
f 1447 1448 1449 1450
v 112 120 64
v 112 128 64
v 128 128 64
v 128 120 64
f 1451 1452 1453 1454
v 112 136 64
v 112 144 64
v 128 144 64
v 128 136 64
f 1455 1456 1457 1458
v 112 128 64
v 112 136 64
v 128 136 64
v 128 128 64
f 1459 1460 1461 1462
v 112 120 56
v 128 120 56
v 128 144 56
v 112 144 56
f 1463 1464 1465 1466
v 112 128 64
v 112 128 56
v 112 144 56
v 112 144 64
f 1467 1468 1469 1470
v 128 144 64
v 128 144 56
v 128 120 56
v 128 120 64
f 1471 1472 1473 1474
v 120 120 64
v 120 120 56
v 112 120 56
v 112 120 64
f 1475 1476 1477 1478
v 120 144 64
v 120 144 56
v 128 144 56
v 128 144 64
f 1479 1480 1481 1482
v 112 160 64
v 112 152 64
v 104 152 64
v 104 160 64
f 1483 1484 1485 1486
v 112 152 56
v 112 160 56
v 104 160 56
v 104 152 56
f 1487 1488 1489 1490
v 104 160 64
v 104 160 56
v 112 160 56
v 112 160 64
f 1491 1492 1493 1494
v 112 152 64
v 112 152 56
v 104 152 56
v 104 152 64
f 1495 1496 1497 1498
v 106 152 64
v 110 152 64
v 110 152 56
v 106 152 56
f 1499 1500 1501 1502
v 106 160 64
v 106 160 56
v 110 160 56
v 110 160 64
f 1503 1504 1505 1506
v 104 152 64
v 104 144 64
v 96 144 64
v 96 152 64
f 1507 1508 1509 1510
v 96 144 64
v 88 144 64
v 88 152 64
v 96 152 64
f 1511 1512 1513 1514
v 104 144 56
v 104 151 56
v 88 151 56
v 88 144 56
f 1515 1516 1517 1518
v 97 151 56
v 104 151 56
v 104 152 56
v 97 152 56
f 1519 1520 1521 1522
v 104 152 64
v 104 152 56
v 104 144 56
v 104 144 64
f 1523 1524 1525 1526
v 96 144 64
v 96 144 56
v 88 144 56
v 88 144 64
f 1527 1528 1529 1530
v 88 144 64
v 88 144 56
v 88 152 56
v 88 152 64
f 1531 1532 1533 1534
v 96 151 56
v 97 151 56
v 97 152 56
v 96 152 56
f 1535 1536 1537 1538
v 96 151 56
v 96 152 56
v 88 152 56
v 88 151 56
f 1539 1540 1541 1542
v 88 152 64
v 88 160 64
v 104 160 64
v 104 152 64
f 1543 1544 1545 1546
v 97 152 56
v 104 152 56
v 104 160 56
v 97 160 56
f 1547 1548 1549 1550
v 96 152 56
v 97 152 56
v 97 160 56
v 96 160 56
f 1551 1552 1553 1554
v 88 160 64
v 88 168 64
v 104 168 64
v 104 160 64
f 1555 1556 1557 1558
v 104 161 56
v 104 168 56
v 88 168 56
v 88 161 56
f 1559 1560 1561 1562
v 104 160 56
v 104 161 56
v 97 161 56
v 97 160 56
f 1563 1564 1565 1566
v 104 168 64
v 104 168 56
v 104 160 56
v 104 160 64
f 1567 1568 1569 1570
v 88 168 64
v 88 168 56
v 96 168 56
v 96 168 64
f 1571 1572 1573 1574
v 88 160 64
v 88 160 56
v 88 168 56
v 88 168 64
f 1575 1576 1577 1578
v 97 160 56
v 97 161 56
v 96 161 56
v 96 160 56
f 1579 1580 1581 1582
v 96 160 56
v 96 161 56
v 88 161 56
v 88 160 56
f 1583 1584 1585 1586
v 96 168 64
v 96 172 64
v 104 172 64
v 104 168 64
f 1587 1588 1589 1590
v 104 172 56
v 96 172 56
v 96 168 56
v 104 168 56
f 1591 1592 1593 1594
v 104 172 64
v 104 172 56
v 104 168 56
v 104 168 64
f 1595 1596 1597 1598
v 96 168 64
v 96 168 56
v 96 172 56
v 96 172 64
f 1599 1600 1601 1602
v 96 172 64
v 96 172 56
v 104 172 56
v 104 172 64
f 1603 1604 1605 1606
v 96 169 60
v 104 169 60
v 104 172 60
v 96 172 60
f 1607 1608 1609 1610
v 96 168 56
v 104 168 56
v 104 172 56
v 96 172 56
f 1611 1612 1613 1614
v 96 169 59
v 104 169 59
v 104 169 60
v 96 169 60
f 1615 1616 1617 1618
v 120 144 64
v 112 144 64
v 112 152 64
v 120 152 64
f 1619 1620 1621 1622
v 120 152 56
v 112 152 56
v 112 144 56
v 120 144 56
f 1623 1624 1625 1626
v 120 152 64
v 120 152 56
v 120 144 56
v 120 144 64
f 1627 1628 1629 1630
v 112 144 64
v 112 144 56
v 112 152 56
v 112 152 64
f 1631 1632 1633 1634
v 120 146 64
v 120 150 64
v 120 150 56
v 120 146 56
f 1635 1636 1637 1638
v 112 146 64
v 112 146 56
v 112 150 56
v 112 150 64
f 1639 1640 1641 1642
v 120 168 64
v 112 168 64
v 112 184 64
v 120 184 64
f 1643 1644 1645 1646
v 120 184 56
v 112 184 56
v 112 168 56
v 120 168 56
f 1647 1648 1649 1650
v 112 168 64
v 112 168 56
v 112 184 56
v 112 184 64
f 1651 1652 1653 1654
v 120 184 64
v 120 184 56
v 120 183 56
v 120 183 64
f 1655 1656 1657 1658
v 120 152 64
v 112 152 64
v 112 160 64
v 120 160 64
f 1659 1660 1661 1662
v 120 160 56
v 112 160 56
v 112 152 56
v 120 152 56
f 1663 1664 1665 1666
v 120 160 64
v 112 160 64
v 112 168 64
v 120 168 64
f 1667 1668 1669 1670
v 120 168 56
v 112 168 56
v 112 160 56
v 120 160 56
f 1671 1672 1673 1674
v 120 168 64
v 120 168 56
v 120 160 56
v 120 160 64
f 1675 1676 1677 1678
v 112 160 64
v 112 160 56
v 112 168 56
v 112 168 64
f 1679 1680 1681 1682
v 120 162 64
v 120 166 64
v 120 166 56
v 120 162 56
f 1683 1684 1685 1686
v 112 162 64
v 112 162 56
v 112 166 56
v 112 166 64
f 1687 1688 1689 1690
v 120 168 64
v 120 183 64
v 132 183 64
v 132 168 64
f 1691 1692 1693 1694
v 120 168 56
v 132 168 56
v 132 183 56
v 120 183 56
f 1695 1696 1697 1698
v 132 183 64
v 132 183 56
v 132 168 56
v 132 168 64
f 1699 1700 1701 1702
v 132 168 64
v 132 168 56
v 120 168 56
v 120 168 64
f 1703 1704 1705 1706
v 120 183 64
v 120 183 56
v 132 183 56
v 132 183 64
f 1707 1708 1709 1710
v 132 183 60
v 129 183 60
v 129 168 60
v 132 168 60
f 1711 1712 1713 1714
v 128 168 56
v 132 168 56
v 132 183 56
v 128 183 56
f 1715 1716 1717 1718
v 129 183 60
v 129 183 59
v 129 168 59
v 129 168 60
f 1719 1720 1721 1722
v 136 152 64
v 136 160 64
v 144 160 64
v 144 152 64
f 1723 1724 1725 1726
v 136 160 56
v 136 152 56
v 144 152 56
v 144 160 56
f 1727 1728 1729 1730
v 144 152 64
v 144 152 56
v 136 152 56
v 136 152 64
f 1731 1732 1733 1734
v 136 160 64
v 136 160 56
v 144 160 56
v 144 160 64
f 1735 1736 1737 1738
v 120 152 64
v 120 160 64
v 128 160 64
v 128 152 64
f 1739 1740 1741 1742
v 120 160 56
v 120 152 56
v 128 152 56
v 128 160 56
f 1743 1744 1745 1746
v 128 152 64
v 128 152 56
v 120 152 56
v 120 152 64
f 1747 1748 1749 1750
v 120 160 64
v 120 160 56
v 128 160 56
v 128 160 64
f 1751 1752 1753 1754
v 128 152 64
v 128 160 64
v 136 160 64
v 136 152 64
f 1755 1756 1757 1758
v 128 160 56
v 128 152 56
v 136 152 56
v 136 160 56
f 1759 1760 1761 1762
v 136 152 64
v 136 152 56
v 128 152 56
v 128 152 64
f 1763 1764 1765 1766
v 128 160 64
v 128 160 56
v 136 160 56
v 136 160 64
f 1767 1768 1769 1770
v 131 152 56
v 133 152 56
v 133 160 56
v 131 160 56
f 1771 1772 1773 1774
v 131 152 64
v 131 160 64
v 133 160 64
v 133 152 64
f 1775 1776 1777 1778
v 104 184 64
v 100 184 64
v 100 192 64
v 104 192 64
f 1779 1780 1781 1782
v 100 192 56
v 100 184 56
v 104 184 56
v 104 192 56
f 1783 1784 1785 1786
v 100 184 64
v 100 184 56
v 100 192 56
v 100 192 64
f 1787 1788 1789 1790
v 100 192 64
v 100 192 56
v 104 192 56
v 104 192 64
f 1791 1792 1793 1794
v 104 184 64
v 104 184 56
v 100 184 56
v 100 184 64
f 1795 1796 1797 1798
v 103 184 60
v 103 192 60
v 100 192 60
v 100 184 60
f 1799 1800 1801 1802
v 104 184 56
v 104 192 56
v 100 192 56
v 100 184 56
f 1803 1804 1805 1806
v 103 184 59
v 103 192 59
v 103 192 60
v 103 184 60
f 1807 1808 1809 1810
v 104 184 64
v 104 200 64
v 120 200 64
v 120 184 64
f 1811 1812 1813 1814
v 104 200 56
v 104 184 56
v 120 184 56
v 120 200 56
f 1815 1816 1817 1818
v 104 192 64
v 104 192 56
v 104 200 56
v 104 200 64
f 1819 1820 1821 1822
v 112 184 64
v 112 184 56
v 104 184 56
v 104 184 64
f 1823 1824 1825 1826
v 119 200 64
v 119 200 56
v 120 200 56
v 120 200 64
f 1827 1828 1829 1830
v 88 208 57
v 88 200 57
v 96 200 57
v 96 208 57
f 1831 1832 1833 1834
v 88 200 72
v 88 200 64
v 88 208 64
v 88 208 72
f 1835 1836 1837 1838
v 96 208 72
v 96 208 57
v 96 200 57
v 96 200 72
f 1839 1840 1841 1842
v 96 200 72
v 96 200 57
v 88 200 57
v 88 200 72
f 1843 1844 1845 1846
v 88 208 72
v 88 208 57
v 96 208 57
v 96 208 72
f 1847 1848 1849 1850
v 119 200 64
v 104 200 64
v 104 204 64
v 119 204 64
f 1851 1852 1853 1854
v 104 200 56
v 119 200 56
v 119 204 56
v 104 204 56
f 1855 1856 1857 1858
v 104 200 64
v 104 200 56
v 104 204 56
v 104 204 64
f 1859 1860 1861 1862
v 119 204 64
v 119 204 56
v 119 200 56
v 119 200 64
f 1863 1864 1865 1866
v 104 204 64
v 104 204 56
v 119 204 56
v 119 204 64
f 1867 1868 1869 1870
v 104 204 60
v 104 201 60
v 119 201 60
v 119 204 60
f 1871 1872 1873 1874
v 119 200 56
v 119 204 56
v 104 204 56
v 104 200 56
f 1875 1876 1877 1878
v 104 201 60
v 104 201 59
v 119 201 59
v 119 201 60
f 1879 1880 1881 1882
v 128 184 64
v 120 184 64
v 120 200 64
v 128 200 64
f 1883 1884 1885 1886
v 128 201 64
v 128 200 64
v 120 200 64
v 120 201 64
f 1887 1888 1889 1890
v 120 184 56
v 128 184 56
v 128 200 56
v 120 200 56
f 1891 1892 1893 1894
v 120 201 56
v 120 200 56
v 128 200 56
v 128 201 56
f 1895 1896 1897 1898
v 128 200 64
v 128 200 56
v 128 184 56
v 128 184 64
f 1899 1900 1901 1902
v 120 200 64
v 120 200 56
v 120 201 56
v 120 201 64
f 1903 1904 1905 1906
v 128 201 64
v 128 201 56
v 128 200 56
v 128 200 64
f 1907 1908 1909 1910
v 128 184 64
v 128 184 56
v 120 184 56
v 120 184 64
f 1911 1912 1913 1914
v 120 216 64
v 128 216 64
v 128 201 64
v 120 201 64
f 1915 1916 1917 1918
v 128 216 56
v 120 216 56
v 120 201 56
v 128 201 56
f 1919 1920 1921 1922
v 120 201 64
v 120 201 56
v 120 208 56
v 120 208 64
f 1923 1924 1925 1926
v 128 208 64
v 128 208 56
v 128 201 56
v 128 201 64
f 1927 1928 1929 1930
v 120 208 64
v 120 208 56
v 120 216 56
v 120 216 64
f 1931 1932 1933 1934
v 128 216 64
v 128 216 56
v 128 208 56
v 128 208 64
f 1935 1936 1937 1938
v 120 216 64
v 120 216 56
v 128 216 56
v 128 216 64
f 1939 1940 1941 1942
v 128 202 64
v 128 206 64
v 128 206 56
v 128 202 56
f 1943 1944 1945 1946
v 120 202 64
v 120 202 56
v 120 206 56
v 120 206 64
f 1947 1948 1949 1950
v 144 200 72
v 144 192 72
v 136 192 72
v 136 200 72
f 1951 1952 1953 1954
v 144 192 56
v 144 200 56
v 136 200 56
v 136 192 56
f 1955 1956 1957 1958
v 136 200 72
v 136 192 72
v 136 192 56
v 136 200 56
f 1959 1960 1961 1962
v 144 192 72
v 144 192 56
v 136 192 56
v 136 192 72
f 1963 1964 1965 1966
v 144 200 72
v 136 200 72
v 136 200 56
v 144 200 56
f 1967 1968 1969 1970
v 144 216 72
v 144 208 72
v 136 208 72
v 136 216 72
f 1971 1972 1973 1974
v 144 208 56
v 144 216 56
v 136 216 56
v 136 208 56
f 1975 1976 1977 1978
v 136 216 72
v 136 208 72
v 136 208 56
v 136 216 56
f 1979 1980 1981 1982
v 144 208 72
v 144 208 56
v 136 208 56
v 136 208 72
f 1983 1984 1985 1986
v 144 216 72
v 136 216 72
v 136 216 56
v 144 216 56
f 1987 1988 1989 1990
v 184 24 72
v 168 24 72
v 168 32 72
v 184 32 72
f 1991 1992 1993 1994
v 184 24 64
v 184 32 64
v 168 32 64
v 168 24 64
f 1995 1996 1997 1998
v 184 24 72
v 184 24 64
v 176 24 64
v 176 24 72
f 1999 2000 2001 2002
v 176 32 72
v 176 32 64
v 184 32 64
v 184 32 72
f 2003 2004 2005 2006
v 168 32 72
v 168 32 64
v 176 32 64
v 176 32 72
f 2007 2008 2009 2010
v 168 24 72
v 168 24 64
v 168 25 64
v 168 25 72
f 2011 2012 2013 2014
v 176 24 72
v 176 24 64
v 168 24 64
v 168 24 72
f 2015 2016 2017 2018
v 182 32 72
v 178 32 72
v 178 32 64
v 182 32 64
f 2019 2020 2021 2022
v 182 24 72
v 182 24 64
v 178 24 64
v 178 24 72
f 2023 2024 2025 2026
v 168 24 80
v 144 24 80
v 144 40 80
v 168 40 80
f 2027 2028 2029 2030
v 144 24 64
v 168 24 64
v 168 40 64
v 144 40 64
f 2031 2032 2033 2034
v 168 32 72
v 168 40 72
v 168 40 64
v 168 32 64
f 2035 2036 2037 2038
v 168 40 80
v 168 40 72
v 168 24 72
v 168 24 80
f 2039 2040 2041 2042
v 144 24 80
v 144 24 64
v 144 40 64
v 144 40 80
f 2043 2044 2045 2046
v 148 24 72
v 151 24 77
v 156 24 77
v 156 24 70
v 148 24 70
f 2047 2048 2049 2050 2051
v 156 24 77
v 161 24 77
v 164 24 72
v 164 24 70
v 156 24 70
f 2052 2053 2054 2055 2056
v 156 24 70
v 164 24 70
v 164 24 69
v 160 24 64
v 156 24 64
f 2057 2058 2059 2060 2061
v 148 24 69
v 148 24 70
v 156 24 70
v 156 24 64
v 152 24 64
f 2062 2063 2064 2065 2066
v 148 39 72
v 148 39 69
v 148 40 69
v 148 40 72
f 2067 2068 2069 2070
v 148 40 69
v 148 39 69
v 152 39 64
v 152 40 64
f 2071 2072 2073 2074
v 151 40 77
v 151 39 77
v 148 39 72
v 148 40 72
f 2075 2076 2077 2078
v 161 40 77
v 161 39 77
v 151 39 77
v 151 40 77
f 2079 2080 2081 2082
v 164 25 72
v 164 24 72
v 161 24 77
v 161 25 77
f 2083 2084 2085 2086
v 164 25 69
v 164 24 69
v 164 24 72
v 164 25 72
f 2087 2088 2089 2090
v 161 25 77
v 161 24 77
v 151 24 77
v 151 25 77
f 2091 2092 2093 2094
v 160 25 64
v 160 24 64
v 164 24 69
v 164 25 69
f 2095 2096 2097 2098
v 148 24 72
v 148 25 72
v 151 25 77
v 151 24 77
f 2099 2100 2101 2102
v 148 24 69
v 148 25 69
v 148 25 72
v 148 24 72
f 2103 2104 2105 2106
v 152 24 64
v 152 25 64
v 148 25 69
v 148 24 69
f 2107 2108 2109 2110
v 160 40 64
v 160 39 64
v 164 39 69
v 164 40 69
f 2111 2112 2113 2114
v 164 40 72
v 164 39 72
v 161 39 77
v 161 40 77
f 2115 2116 2117 2118
v 164 40 69
v 164 39 69
v 164 39 72
v 164 40 72
f 2119 2120 2121 2122
v 161 25 77
v 168 25 77
v 168 25 72
v 164 25 72
f 2123 2124 2125 2126
v 148 25 72
v 148 25 69
v 144 25 69
v 144 25 72
f 2127 2128 2129 2130
v 144 25 69
v 148 25 69
v 152 25 64
v 144 25 64
f 2131 2132 2133 2134
v 144 25 77
v 151 25 77
v 148 25 72
v 144 25 72
f 2135 2136 2137 2138
v 168 39 72
v 168 39 77
v 161 39 77
v 164 39 72
f 2139 2140 2141 2142
v 148 39 72
v 151 39 77
v 144 39 77
v 144 39 72
f 2143 2144 2145 2146
v 148 39 72
v 144 39 72
v 144 39 69
v 148 39 69
f 2147 2148 2149 2150
v 152 39 64
v 148 39 69
v 144 39 69
v 144 39 64
f 2151 2152 2153 2154
v 168 25 69
v 164 25 69
v 164 25 72
v 168 25 72
f 2155 2156 2157 2158
v 168 25 69
v 168 25 64
v 160 25 64
v 164 25 69
f 2159 2160 2161 2162
v 168 39 69
v 168 39 72
v 164 39 72
v 164 39 69
f 2163 2164 2165 2166
v 160 39 64
v 168 39 64
v 168 39 69
v 164 39 69
f 2167 2168 2169 2170
v 168 25 80
v 168 25 77
v 144 25 77
v 144 25 80
f 2171 2172 2173 2174
v 168 39 80
v 144 39 80
v 144 39 77
v 168 39 77
f 2175 2176 2177 2178
v 160 24 64
v 160 25 64
v 152 25 64
v 152 24 64
f 2179 2180 2181 2182
v 152 39 64
v 160 39 64
v 160 40 64
v 152 40 64
f 2183 2184 2185 2186
v 144 40 80
v 144 56 80
v 168 56 80
v 168 40 80
f 2187 2188 2189 2190
v 168 40 64
v 168 56 64
v 144 56 64
v 144 40 64
f 2191 2192 2193 2194
v 168 40 80
v 168 56 80
v 168 56 64
v 168 40 64
f 2195 2196 2197 2198
v 144 40 80
v 144 40 64
v 144 56 64
v 144 56 80
f 2199 2200 2201 2202
v 144 56 80
v 144 56 64
v 152 56 64
v 152 56 80
f 2203 2204 2205 2206
v 160 56 80
v 160 56 64
v 168 56 64
v 168 56 80
f 2207 2208 2209 2210
v 152 56 80
v 152 56 72
v 160 56 72
v 160 56 80
f 2211 2212 2213 2214
v 151 41 77
v 161 41 77
v 161 40 77
v 151 40 77
f 2215 2216 2217 2218
v 152 40 64
v 152 41 64
v 148 41 69
v 148 40 69
f 2219 2220 2221 2222
v 148 40 69
v 148 41 69
v 148 41 72
v 148 40 72
f 2223 2224 2225 2226
v 164 40 69
v 164 41 69
v 160 41 64
v 160 40 64
f 2227 2228 2229 2230
v 161 40 77
v 161 41 77
v 164 41 72
v 164 40 72
f 2231 2232 2233 2234
v 164 41 72
v 164 41 69
v 164 40 69
v 164 40 72
f 2235 2236 2237 2238
v 148 40 72
v 148 41 72
v 151 41 77
v 151 40 77
f 2239 2240 2241 2242
v 161 41 77
v 168 41 77
v 168 41 72
v 164 41 72
f 2243 2244 2245 2246
v 148 41 72
v 148 41 69
v 144 41 69
v 144 41 72
f 2247 2248 2249 2250
v 144 41 69
v 148 41 69
v 152 41 64
v 144 41 64
f 2251 2252 2253 2254
v 144 41 77
v 151 41 77
v 148 41 72
v 144 41 72
f 2255 2256 2257 2258
v 168 41 69
v 164 41 69
v 164 41 72
v 168 41 72
f 2259 2260 2261 2262
v 168 41 69
v 168 41 64
v 160 41 64
v 164 41 69
f 2263 2264 2265 2266
v 168 41 80
v 168 41 77
v 144 41 77
v 144 41 80
f 2267 2268 2269 2270
v 160 40 64
v 160 41 64
v 152 41 64
v 152 40 64
f 2271 2272 2273 2274
v 160 64 72
v 160 56 72
v 152 56 72
v 152 64 72
f 2275 2276 2277 2278
v 160 56 64
v 160 64 64
v 152 64 64
v 152 56 64
f 2279 2280 2281 2282
v 160 64 72
v 160 64 64
v 160 56 64
v 160 56 72
f 2283 2284 2285 2286
v 152 56 72
v 152 56 64
v 152 64 64
v 152 64 72
f 2287 2288 2289 2290
v 160 58 72
v 160 62 72
v 160 62 64
v 160 58 64
f 2291 2292 2293 2294
v 152 58 72
v 152 58 64
v 152 62 64
v 152 62 72
f 2295 2296 2297 2298
v 177 64 80
v 176 56 80
v 176 56 72
v 177 64 72
f 2299 2300 2301 2302
v 184 56 64
v 176 56 64
v 176 56 72
v 184 56 72
f 2303 2304 2305 2306
v 184 56 80
v 184 56 72
v 176 56 72
v 176 56 80
f 2307 2308 2309 2310
v 184 56 40
v 176 56 40
v 176 56 64
v 184 56 64
f 2311 2312 2313 2314
v 177 64 80
v 177 64 72
v 181 88 72
v 181 88 80
f 2315 2316 2317 2318
v 152 64 80
v 144 64 80
v 144 88 80
v 152 88 80
f 2319 2320 2321 2322
v 144 88 64
v 144 64 64
v 152 64 64
v 152 88 64
f 2323 2324 2325 2326
v 144 64 80
v 144 64 64
v 144 88 64
v 144 88 80
f 2327 2328 2329 2330
v 144 88 80
v 144 88 72
v 152 88 72
v 152 88 80
f 2331 2332 2333 2334
v 144 88 72
v 144 88 64
v 152 88 64
v 152 88 72
f 2335 2336 2337 2338
v 144 64 72
v 144 64 80
v 152 64 80
v 152 64 72
f 2339 2340 2341 2342
v 144 64 72
v 152 64 72
v 152 64 64
v 144 64 64
f 2343 2344 2345 2346
v 152 88 64
v 148 88 64
v 148 88 40
v 152 88 40
f 2347 2348 2349 2350
v 152 64 64
v 152 64 40
v 148 64 40
v 148 64 64
f 2351 2352 2353 2354
v 168 64 64
v 168 64 80
v 168 88 80
v 168 88 64
f 2355 2356 2357 2358
v 160 64 64
v 168 64 64
v 168 88 64
v 160 88 64
f 2359 2360 2361 2362
v 168 88 80
v 168 64 80
v 160 64 80
v 160 88 80
f 2363 2364 2365 2366
v 160 88 80
v 160 88 72
v 168 88 72
v 168 88 80
f 2367 2368 2369 2370
v 160 88 72
v 160 88 64
v 168 88 64
v 168 88 72
f 2371 2372 2373 2374
v 160 64 80
v 168 64 80
v 168 64 72
v 160 64 72
f 2375 2376 2377 2378
v 160 64 72
v 168 64 72
v 168 64 64
v 160 64 64
f 2379 2380 2381 2382
v 164 88 40
v 164 88 64
v 160 88 64
v 160 88 40
f 2383 2384 2385 2386
v 164 64 64
v 164 64 40
v 160 64 40
v 160 64 64
f 2387 2388 2389 2390
v 152 88 64
v 152 64 64
v 160 64 64
v 160 88 64
f 2391 2392 2393 2394
v 160 88 40
v 160 88 64
v 152 88 64
v 152 88 40
f 2395 2396 2397 2398
v 160 64 64
v 160 64 40
v 152 64 40
v 152 64 64
f 2399 2400 2401 2402
v 160 88 64
v 152 88 64
v 152 64 64
v 160 64 64
f 2403 2404 2405 2406
v 152 88 72
v 160 88 72
v 160 64 72
v 152 64 72
f 2407 2408 2409 2410
v 160 88 72
v 160 88 64
v 160 64 64
v 160 64 72
f 2411 2412 2413 2414
v 152 64 72
v 152 64 64
v 152 88 64
v 152 88 72
f 2415 2416 2417 2418
v 160 88 80
v 160 64 80
v 152 64 80
v 152 88 80
f 2419 2420 2421 2422
v 152 88 80
v 152 88 72
v 160 88 72
v 160 88 80
f 2423 2424 2425 2426
v 152 64 72
v 152 64 80
v 160 64 80
v 160 64 72
f 2427 2428 2429 2430
v 184 104 80
v 181 88 80
v 181 88 72
v 184 104 72
f 2431 2432 2433 2434
v 152 104 64
v 160 104 64
v 160 120 56
v 152 120 56
f 2435 2436 2437 2438
v 160 104 64
v 160 120 64
v 160 120 56
f 2439 2440 2441
v 152 120 64
v 152 104 64
v 152 120 56
f 2442 2443 2444
v 160 104 72
v 160 88 72
v 152 88 72
v 152 104 72
f 2445 2446 2447 2448
v 152 120 64
v 160 120 64
v 160 104 72
v 152 104 72
f 2449 2450 2451 2452
v 160 88 64
v 160 104 64
v 152 104 64
v 152 88 64
f 2453 2454 2455 2456
v 160 104 64
v 160 104 72
v 160 120 64
f 2457 2458 2459
v 152 88 72
v 152 88 64
v 152 104 64
v 152 104 72
f 2460 2461 2462 2463
v 160 104 72
v 160 104 64
v 160 88 64
v 160 88 72
f 2464 2465 2466 2467
v 152 120 64
v 152 104 72
v 152 104 64
f 2468 2469 2470
v 160 90 72
v 160 94 72
v 160 94 64
v 160 90 64
f 2471 2472 2473 2474
v 152 90 72
v 152 90 64
v 152 94 64
v 152 94 72
f 2475 2476 2477 2478
v 152 120 64
v 144 120 64
v 144 128 64
v 152 128 64
f 2479 2480 2481 2482
v 144 128 56
v 144 120 56
v 152 120 56
v 152 128 56
f 2483 2484 2485 2486
v 144 120 64
v 144 120 56
v 144 128 56
v 144 128 64
f 2487 2488 2489 2490
v 152 120 64
v 152 120 56
v 144 120 56
v 144 120 64
f 2491 2492 2493 2494
v 144 128 64
v 144 128 56
v 152 128 56
v 152 128 64
f 2495 2496 2497 2498
v 168 120 64
v 160 120 64
v 160 128 64
v 168 128 64
f 2499 2500 2501 2502
v 168 120 56
v 168 128 56
v 160 128 56
v 160 120 56
f 2503 2504 2505 2506
v 168 128 64
v 168 128 56
v 168 120 56
v 168 120 64
f 2507 2508 2509 2510
v 160 128 64
v 160 128 56
v 168 128 56
v 168 128 64
f 2511 2512 2513 2514
v 168 120 64
v 168 120 56
v 160 120 56
v 160 120 64
f 2515 2516 2517 2518
v 160 120 64
v 152 120 64
v 152 128 64
v 160 128 64
f 2519 2520 2521 2522
v 160 128 56
v 152 128 56
v 152 120 56
v 160 120 56
f 2523 2524 2525 2526
v 160 128 64
v 152 128 64
v 152 136 64
v 160 136 64
f 2527 2528 2529 2530
v 160 136 56
v 152 136 56
v 152 128 56
v 160 128 56
f 2531 2532 2533 2534
v 160 136 64
v 160 136 56
v 160 128 56
v 160 128 64
f 2535 2536 2537 2538
v 152 128 64
v 152 128 56
v 152 136 56
v 152 136 64
f 2539 2540 2541 2542
v 160 130 64
v 160 134 64
v 160 134 56
v 160 130 56
f 2543 2544 2545 2546
v 152 130 64
v 152 130 56
v 152 134 56
v 152 134 64
f 2547 2548 2549 2550
v 160 136 64
v 152 136 64
v 152 144 64
v 160 144 64
f 2551 2552 2553 2554
v 160 144 56
v 152 144 56
v 152 136 56
v 160 136 56
f 2555 2556 2557 2558
v 160 144 64
v 160 144 56
v 160 136 56
v 160 136 64
f 2559 2560 2561 2562
v 152 136 64
v 152 136 56
v 152 144 56
v 152 144 64
f 2563 2564 2565 2566
v 144 152 64
v 144 144 64
v 144 144 56
v 144 152 56
f 2567 2568 2569 2570
v 144 168 64
v 144 160 64
v 144 160 56
v 144 168 56
f 2571 2572 2573 2574
v 168 160 64
v 168 168 64
v 168 168 56
v 168 160 56
f 2575 2576 2577 2578
v 168 144 64
v 168 152 64
v 168 152 56
v 168 144 56
f 2579 2580 2581 2582
v 160 144 64
v 168 144 64
v 168 144 56
v 160 144 56
f 2583 2584 2585 2586
v 168 168 64
v 160 168 64
v 160 168 56
v 168 168 56
f 2587 2588 2589 2590
v 152 168 64
v 144 168 64
v 144 168 56
v 152 168 56
f 2591 2592 2593 2594
v 144 144 64
v 152 144 64
v 152 144 56
v 144 144 56
f 2595 2596 2597 2598
v 144 168 56
v 144 144 56
v 144 144 16
v 144 168 16
f 2599 2600 2601 2602
v 168 144 56
v 168 168 56
v 168 168 16
v 168 144 16
f 2603 2604 2605 2606
v 168 144 88
v 168 168 88
v 168 168 64
v 168 144 64
f 2607 2608 2609 2610
v 144 168 88
v 144 144 88
v 144 144 64
v 144 168 64
f 2611 2612 2613 2614
v 168 168 88
v 144 168 88
v 144 168 64
v 168 168 64
f 2615 2616 2617 2618
v 168 168 56
v 144 168 56
v 144 168 16
v 168 168 16
f 2619 2620 2621 2622
v 144 144 56
v 168 144 56
v 168 144 16
v 144 144 16
f 2623 2624 2625 2626
v 144 144 88
v 168 144 88
v 168 144 64
v 144 144 64
f 2627 2628 2629 2630
v 144 168 56
v 144 144 56
v 144 144 16
v 144 168 16
f 2631 2632 2633 2634
v 168 144 56
v 168 168 56
v 168 168 16
v 168 144 16
f 2635 2636 2637 2638
v 168 168 56
v 144 168 56
v 144 168 16
v 168 168 16
f 2639 2640 2641 2642
v 168 144 16
v 168 168 16
v 144 168 16
v 144 144 16
f 2643 2644 2645 2646
v 144 144 56
v 168 144 56
v 168 144 16
v 144 144 16
f 2647 2648 2649 2650
v 168 152 64
v 168 160 64
v 176 160 64
v 176 152 64
f 2651 2652 2653 2654
v 168 160 56
v 168 152 56
v 176 152 56
v 176 160 56
f 2655 2656 2657 2658
v 168 160 64
v 168 160 56
v 176 160 56
v 176 160 64
f 2659 2660 2661 2662
v 176 152 64
v 176 152 56
v 168 152 56
v 168 152 64
f 2663 2664 2665 2666
v 176 152 64
v 176 160 64
v 184 160 64
v 184 152 64
f 2667 2668 2669 2670
v 176 160 56
v 176 152 56
v 184 152 56
v 184 160 56
f 2671 2672 2673 2674
v 176 160 64
v 176 160 56
v 184 160 56
v 184 160 64
f 2675 2676 2677 2678
v 184 152 64
v 184 152 56
v 176 152 56
v 176 152 64
f 2679 2680 2681 2682
v 178 152 64
v 182 152 64
v 182 152 56
v 178 152 56
f 2683 2684 2685 2686
v 178 160 64
v 178 160 56
v 182 160 56
v 182 160 64
f 2687 2688 2689 2690
v 184 56 72
v 192 56 72
v 192 36 72
v 184 36 72
f 2691 2692 2693 2694
v 192 48 72
v 192 48 64
v 192 36 64
v 192 36 72
f 2695 2696 2697 2698
v 184 36 72
v 184 36 64
v 184 56 64
v 184 56 72
f 2699 2700 2701 2702
v 192 36 72
v 192 36 64
v 184 36 64
v 184 36 72
f 2703 2704 2705 2706
v 192 56 64
v 184 56 64
v 184 36 64
v 192 36 64
f 2707 2708 2709 2710
v 184 40 64
v 192 40 64
v 192 56 64
v 184 56 64
f 2711 2712 2713 2714
v 192 56 65
v 192 56 64
v 192 48 64
v 192 48 65
f 2715 2716 2717 2718
v 184 32 65
v 184 32 64
v 188 32 64
v 188 32 65
f 2719 2720 2721 2722
v 188 24 65
v 188 24 64
v 184 24 64
v 184 24 65
f 2723 2724 2725 2726
v 188 32 72
v 188 24 72
v 184 24 72
v 184 32 72
f 2727 2728 2729 2730
v 184 32 65
v 184 24 65
v 188 24 65
v 188 32 65
f 2731 2732 2733 2734
v 188 32 72
v 184 32 72
v 184 32 65
v 188 32 65
f 2735 2736 2737 2738
v 184 24 72
v 188 24 72
v 188 24 65
v 184 24 65
f 2739 2740 2741 2742
v 192 56 80
v 192 56 72
v 184 56 72
v 184 56 80
f 2743 2744 2745 2746
v 192 56 64
v 192 56 40
v 184 56 40
v 184 56 64
f 2747 2748 2749 2750
v 184 56 64
v 192 56 64
v 192 72 64
v 184 72 64
f 2751 2752 2753 2754
v 184 72 64
v 192 72 64
v 192 104 64
v 184 104 64
f 2755 2756 2757 2758
v 192 56 72
v 184 56 72
v 184 104 72
v 192 104 72
f 2759 2760 2761 2762
v 184 56 72
v 184 56 64
v 184 104 64
v 184 104 72
f 2763 2764 2765 2766
v 192 104 72
v 192 104 64
v 192 56 64
v 192 56 72
f 2767 2768 2769 2770
v 208 56 80
v 208 56 72
v 192 56 72
v 192 56 80
f 2771 2772 2773 2774
v 208 56 64
v 192 56 64
v 192 56 72
v 208 56 72
f 2775 2776 2777 2778
v 208 56 64
v 208 56 40
v 192 56 40
v 192 56 64
f 2779 2780 2781 2782
v 208 48 64
v 208 56 64
v 200 56 64
v 200 48 64
f 2783 2784 2785 2786
v 208 48 65
v 208 48 64
v 200 48 64
v 200 48 65
f 2787 2788 2789 2790
v 200 56 65
v 200 56 64
v 208 56 64
v 208 56 65
f 2791 2792 2793 2794
v 200 48 65
v 200 48 64
v 192 48 64
v 192 48 65
f 2795 2796 2797 2798
v 192 56 65
v 192 56 64
v 200 56 64
v 200 56 65
f 2799 2800 2801 2802
v 206 48 65
v 206 48 64
v 202 48 64
v 202 48 65
f 2803 2804 2805 2806
v 206 56 65
v 202 56 65
v 202 56 64
v 206 56 64
f 2807 2808 2809 2810
v 192 56 72
v 208 56 72
v 208 48 72
v 192 48 72
f 2811 2812 2813 2814
v 192 56 65
v 192 48 65
v 200 48 65
v 200 56 65
f 2815 2816 2817 2818
v 200 48 72
v 208 48 72
v 208 48 65
v 200 48 65
f 2819 2820 2821 2822
v 208 56 72
v 200 56 72
v 200 56 65
v 208 56 65
f 2823 2824 2825 2826
v 192 48 72
v 200 48 72
v 200 48 65
v 192 48 65
f 2827 2828 2829 2830
v 200 56 72
v 192 56 72
v 192 56 65
v 200 56 65
f 2831 2832 2833 2834
v 202 48 72
v 206 48 72
v 206 48 65
v 202 48 65
f 2835 2836 2837 2838
v 206 56 72
v 202 56 72
v 202 56 65
v 206 56 65
f 2839 2840 2841 2842
v 208 120 72
v 196 120 72
v 196 128 72
v 208 128 72
f 2843 2844 2845 2846
v 208 120 64
v 208 128 64
v 196 128 64
v 196 120 64
f 2847 2848 2849 2850
v 200 128 72
v 200 128 64
v 208 128 64
v 208 128 72
f 2851 2852 2853 2854
v 208 120 72
v 208 120 64
v 200 120 64
v 200 120 72
f 2855 2856 2857 2858
v 200 120 72
v 200 120 64
v 196 120 64
v 196 120 72
f 2859 2860 2861 2862
v 196 128 72
v 196 128 64
v 200 128 64
v 200 128 72
f 2863 2864 2865 2866
v 206 120 72
v 206 120 64
v 202 120 64
v 202 120 72
f 2867 2868 2869 2870
v 206 128 72
v 202 128 72
v 202 128 64
v 206 128 64
f 2871 2872 2873 2874
v 208 120 65
v 208 128 65
v 208 128 64
v 208 120 64
f 2875 2876 2877 2878
v 192 136 64
v 184 136 64
v 184 152 64
v 192 152 64
f 2879 2880 2881 2882
v 184 152 56
v 184 136 56
v 192 136 56
v 192 152 56
f 2883 2884 2885 2886
v 184 136 64
v 184 136 56
v 184 152 56
v 184 152 64
f 2887 2888 2889 2890
v 192 136 64
v 192 136 56
v 184 136 56
v 184 136 64
f 2891 2892 2893 2894
v 192 144 64
v 192 144 56
v 192 143 56
v 192 143 64
f 2895 2896 2897 2898
v 192 152 64
v 208 152 64
v 208 144 64
v 192 144 64
f 2899 2900 2901 2902
v 192 152 56
v 192 144 56
v 208 144 56
v 208 152 56
v 200 152 56
f 2903 2904 2905 2906 2907
v 208 152 64
v 208 152 56
v 208 144 56
v 208 144 64
f 2908 2909 2910 2911
v 192 152 64
v 192 152 56
v 200 152 56
v 200 152 64
f 2912 2913 2914 2915
v 192 144 64
v 193 144 64
v 193 144 56
v 192 144 56
f 2916 2917 2918 2919
v 208 143 64
v 208 136 64
v 192 136 64
v 192 143 64
f 2920 2921 2922 2923
v 192 136 56
v 208 136 56
v 208 143 56
v 192 143 56
f 2924 2925 2926 2927
v 208 143 64
v 208 143 56
v 208 136 56
v 208 136 64
f 2928 2929 2930 2931
v 208 136 64
v 208 136 56
v 192 136 56
v 192 136 64
f 2932 2933 2934 2935
v 192 143 64
v 192 143 56
v 193 143 56
v 193 143 64
f 2936 2937 2938 2939
v 192 143 64
v 192 144 64
v 193 144 64
v 193 143 64
f 2940 2941 2942 2943
v 192 144 56
v 192 143 56
v 193 143 56
v 193 144 56
f 2944 2945 2946 2947
v 193 144 64
v 208 144 64
v 208 143 64
v 193 143 64
f 2948 2949 2950 2951
v 193 143 56
v 208 143 56
v 208 144 56
v 193 144 56
f 2952 2953 2954 2955
v 208 144 64
v 208 144 56
v 208 143 56
v 208 143 64
f 2956 2957 2958 2959
v 193 144 64
v 193 143 64
v 193 143 56
v 193 144 56
f 2960 2961 2962 2963
v 192 152 64
v 184 152 64
v 184 168 64
v 192 168 64
f 2964 2965 2966 2967
v 192 152 56
v 192 168 56
v 184 168 56
v 184 152 56
f 2968 2969 2970 2971
v 192 168 64
v 192 168 56
v 192 152 56
v 192 152 64
f 2972 2973 2974 2975
v 184 160 64
v 184 160 56
v 184 168 56
v 184 168 64
f 2976 2977 2978 2979
v 200 152 64
v 200 160 64
v 208 160 64
v 208 152 64
f 2980 2981 2982 2983
v 200 160 56
v 200 152 56
v 208 152 56
v 208 160 56
f 2984 2985 2986 2987
v 200 152 64
v 200 152 56
v 200 160 56
v 200 160 64
f 2988 2989 2990 2991
v 200 160 64
v 200 160 56
v 208 160 56
v 208 160 64
f 2992 2993 2994 2995
v 224 120 64
v 216 120 64
v 216 72 64
v 224 72 64
f 2996 2997 2998 2999
v 216 72 72
v 216 72 64
v 216 120 64
v 216 120 72
f 3000 3001 3002 3003
v 216 72 72
v 220 48 68
v 220 48 64
v 216 72 64
f 3004 3005 3006 3007
v 224 48 68
v 220 48 68
v 216 72 72
v 224 72 72
f 3008 3009 3010 3011
v 220 48 64
v 220 48 68
v 224 36 64
f 3012 3013 3014
v 224 36 64
v 220 48 68
v 224 48 68
f 3015 3016 3017
v 216 120 72
v 224 120 72
v 224 72 72
v 216 72 72
f 3018 3019 3020 3021
v 224 120 72
v 224 120 64
v 224 72 64
v 224 72 72
f 3022 3023 3024 3025
v 224 48 60
v 220 48 60
v 224 36 56
f 3026 3027 3028
v 224 36 58
v 224 36 56
v 220 48 60
f 3029 3030 3031
v 224 48 60
v 224 72 64
v 216 72 64
v 220 48 60
f 3032 3033 3034 3035
v 220 48 64
v 224 36 64
v 224 36 58
v 220 48 60
f 3036 3037 3038 3039
v 220 48 64
v 220 48 60
v 216 72 64
f 3040 3041 3042
v 224 48 60
v 228 48 60
v 224 72 64
f 3043 3044 3045
v 224 72 68
v 224 72 64
v 228 48 60
f 3046 3047 3048
v 236 24 52
v 228 48 60
v 224 48 60
v 224 36 56
v 228 24 52
f 3049 3050 3051 3052 3053
v 236 24 60
v 228 48 68
v 228 48 60
v 236 24 52
f 3054 3055 3056 3057
v 228 24 60
v 224 36 64
v 224 48 68
v 228 48 68
v 236 24 60
f 3058 3059 3060 3061 3062
v 224 36 64
v 228 24 60
v 228 24 52
v 224 36 56
f 3063 3064 3065 3066
v 224 48 68
v 224 60 70
v 228 48 68
f 3067 3068 3069
v 224 60 70
v 224 72 72
v 228 48 68
f 3070 3071 3072
v 228 48 68
v 224 72 72
v 224 72 68
v 228 48 60
f 3073 3074 3075 3076
v 224 120 72
v 216 120 72
v 216 140 72
v 224 140 72
f 3077 3078 3079 3080
v 224 140 72
v 224 140 64
v 224 120 64
v 224 120 72
f 3081 3082 3083 3084
v 216 128 72
v 216 128 64
v 216 140 64
v 216 140 72
f 3085 3086 3087 3088
v 216 140 72
v 216 140 64
v 224 140 64
v 224 140 72
f 3089 3090 3091 3092
v 216 120 64
v 224 120 64
v 224 140 64
v 216 140 64
f 3093 3094 3095 3096
v 222 120 66
v 222 135 66
v 218 135 66
v 218 120 66
f 3097 3098 3099 3100
v 217 135 66
v 217 135 64
v 217 120 64
v 217 120 66
f 3101 3102 3103 3104
v 218 120 66
v 218 135 66
v 217 135 66
v 217 120 66
f 3105 3106 3107 3108
v 223 120 66
v 223 135 66
v 222 135 66
v 222 120 66
f 3109 3110 3111 3112
v 218 120 69
v 218 123 69
v 218 123 66
v 218 120 66
f 3113 3114 3115 3116
v 218 120 69
v 218 120 66
v 218 123 66
v 218 123 69
f 3117 3118 3119 3120
v 218 127 69
v 218 135 69
v 218 135 66
v 218 127 66
f 3121 3122 3123 3124
v 218 120 69
v 222 120 69
v 222 120 66
v 218 120 66
f 3125 3126 3127 3128
v 218 127 69
v 218 127 66
v 218 135 66
v 218 135 69
f 3129 3130 3131 3132
v 222 135 69
v 218 135 69
v 218 135 66
v 222 135 66
f 3133 3134 3135 3136
v 222 120 69
v 222 135 69
v 222 135 66
v 222 120 66
f 3137 3138 3139 3140
v 216 120 65
v 216 120 64
v 208 120 64
v 208 120 65
f 3141 3142 3143 3144
v 208 128 65
v 208 128 64
v 216 128 64
v 216 128 65
f 3145 3146 3147 3148
v 216 128 72
v 216 120 72
v 208 120 72
v 208 128 72
f 3149 3150 3151 3152
v 216 120 65
v 216 128 65
v 208 128 65
v 208 120 65
f 3153 3154 3155 3156
v 208 120 72
v 216 120 72
v 216 120 65
v 208 120 65
f 3157 3158 3159 3160
v 216 128 72
v 208 128 72
v 208 128 65
v 216 128 65
f 3161 3162 3163 3164
v 216 168 64
v 224 168 64
v 224 152 64
v 216 152 64
f 3165 3166 3167 3168
v 224 152 56
v 224 168 56
v 216 168 56
v 216 152 56
f 3169 3170 3171 3172
v 224 160 64
v 224 160 56
v 224 152 56
v 224 152 64
f 3173 3174 3175 3176
v 216 160 64
v 216 160 56
v 216 168 56
v 216 168 64
f 3177 3178 3179 3180
v 224 152 64
v 224 152 56
v 216 152 56
v 216 152 64
f 3181 3182 3183 3184
v 208 152 64
v 208 160 64
v 212 160 64
v 212 152 64
f 3185 3186 3187 3188
v 208 160 56
v 208 152 56
v 212 152 56
v 212 160 56
f 3189 3190 3191 3192
v 208 160 64
v 208 160 56
v 212 160 56
v 212 160 64
f 3193 3194 3195 3196
v 212 152 64
v 212 152 56
v 208 152 56
v 208 152 64
f 3197 3198 3199 3200
v 212 153 64
v 212 160 63
v 212 160 56
v 212 152 57
f 3201 3202 3203 3204
v 210 160 64
v 210 160 56
v 212 160 56
v 212 160 64
f 3205 3206 3207 3208
v 210 152 56
v 210 152 64
v 212 152 64
v 212 152 56
f 3209 3210 3211 3212
v 212 153 64
v 212 160 63
v 212 160 56
v 212 152 57
f 3213 3214 3215 3216
v 212 160 56
v 208 160 56
v 208 152 56
v 212 152 56
f 3217 3218 3219 3220
v 212 152 64
v 212 160 64
v 216 160 64
v 216 152 64
f 3221 3222 3223 3224
v 212 160 56
v 212 152 56
v 216 152 56
v 216 160 56
f 3225 3226 3227 3228
v 212 160 64
v 212 160 56
v 216 160 56
v 216 160 64
f 3229 3230 3231 3232
v 216 152 64
v 216 152 56
v 212 152 56
v 212 152 64
f 3233 3234 3235 3236
v 212 160 56
v 212 160 63
v 212 153 64
v 212 152 57
f 3237 3238 3239 3240
v 212 160 64
v 212 160 56
v 214 160 56
v 214 160 64
f 3241 3242 3243 3244
v 212 152 64
v 214 152 64
v 214 152 56
v 212 152 56
f 3245 3246 3247 3248
v 212 160 56
v 212 160 63
v 212 153 64
v 212 152 57
f 3249 3250 3251 3252
v 216 152 56
v 216 160 56
v 212 160 56
v 212 152 56
f 3253 3254 3255 3256
v 232 168 64
v 232 160 64
v 224 160 64
v 224 168 64
f 3257 3258 3259 3260
v 224 168 56
v 224 160 56
v 232 160 56
v 232 168 56
f 3261 3262 3263 3264
v 232 160 64
v 232 160 56
v 224 160 56
v 224 160 64
f 3265 3266 3267 3268
v 224 168 64
v 224 168 56
v 232 168 56
v 232 168 64
f 3269 3270 3271 3272
v 226 160 64
v 230 160 64
v 230 160 56
v 226 160 56
f 3273 3274 3275 3276
v 226 168 64
v 226 168 56
v 230 168 56
v 230 168 64
f 3277 3278 3279 3280
v 232 168 64
v 240 168 64
v 240 160 64
v 232 160 64
f 3281 3282 3283 3284
v 232 160 56
v 240 160 56
v 240 168 56
v 232 168 56
f 3285 3286 3287 3288
v 240 168 64
v 240 168 56
v 240 160 56
v 240 160 64
f 3289 3290 3291 3292
v 240 160 64
v 240 160 56
v 232 160 56
v 232 160 64
f 3293 3294 3295 3296
v 144 192 72
v 152 192 72
v 152 184 72
v 144 184 72
f 3297 3298 3299 3300
v 168 184 72
v 160 184 72
v 160 192 72
v 168 192 72
f 3301 3302 3303 3304
v 160 192 72
v 160 184 72
v 152 184 72
v 152 192 72
f 3305 3306 3307 3308
v 144 192 56
v 144 184 56
v 168 184 56
v 168 192 56
f 3309 3310 3311 3312
v 152 184 64
v 152 184 56
v 144 184 56
v 144 184 64
f 3313 3314 3315 3316
v 152 192 63
v 152 192 56
v 160 192 56
v 160 192 63
f 3317 3318 3319 3320
v 168 184 64
v 168 184 56
v 160 184 56
v 160 184 64
f 3321 3322 3323 3324
v 168 184 72
v 168 192 72
v 168 192 56
v 168 184 56
f 3325 3326 3327 3328
v 144 192 72
v 144 184 72
v 144 184 56
v 144 192 56
f 3329 3330 3331 3332
v 168 184 72
v 168 184 64
v 144 184 64
v 144 184 72
f 3333 3334 3335 3336
v 160 168 64
v 152 168 64
v 152 176 64
v 160 176 64
f 3337 3338 3339 3340
v 160 176 56
v 152 176 56
v 152 168 56
v 160 168 56
f 3341 3342 3343 3344
v 152 168 64
v 152 168 56
v 152 176 56
v 152 176 64
f 3345 3346 3347 3348
v 160 176 64
v 160 176 56
v 160 168 56
v 160 168 64
f 3349 3350 3351 3352
v 160 176 64
v 152 176 64
v 152 184 64
v 160 184 64
f 3353 3354 3355 3356
v 160 184 56
v 152 184 56
v 152 176 56
v 160 176 56
f 3357 3358 3359 3360
v 160 184 64
v 160 184 56
v 160 176 56
v 160 176 64
f 3361 3362 3363 3364
v 152 176 64
v 152 176 56
v 152 184 56
v 152 184 64
f 3365 3366 3367 3368
v 160 178 64
v 160 182 64
v 160 182 56
v 160 178 56
f 3369 3370 3371 3372
v 152 178 64
v 152 178 56
v 152 182 56
v 152 182 64
f 3373 3374 3375 3376
v 144 200 72
v 152 200 72
v 152 192 72
v 144 192 72
f 3377 3378 3379 3380
v 152 208 72
v 144 208 72
v 144 216 72
v 152 216 72
f 3381 3382 3383 3384
v 152 208 72
v 152 200 72
v 144 200 72
v 144 208 72
f 3385 3386 3387 3388
v 144 192 56
v 152 192 56
v 152 216 56
v 144 216 56
f 3389 3390 3391 3392
v 152 216 63
v 152 216 56
v 152 192 56
v 152 192 63
f 3393 3394 3395 3396
v 144 208 72
v 144 200 72
v 144 200 56
v 144 208 56
f 3397 3398 3399 3400
v 160 216 72
v 160 192 72
v 152 192 72
v 152 216 72
f 3401 3402 3403 3404
v 168 208 72
v 160 208 72
v 160 216 72
v 168 216 72
f 3405 3406 3407 3408
v 168 192 72
v 160 192 72
v 160 200 72
v 168 200 72
f 3409 3410 3411 3412
v 168 208 72
v 168 200 72
v 160 200 72
v 160 208 72
f 3413 3414 3415 3416
v 160 192 56
v 168 192 56
v 168 216 56
v 160 216 56
f 3417 3418 3419 3420
v 160 192 63
v 160 192 56
v 160 216 56
v 160 216 63
f 3421 3422 3423 3424
v 152 216 72
v 144 216 72
v 144 223 72
v 152 223 72
f 3425 3426 3427 3428
v 168 216 72
v 160 216 72
v 160 223 72
v 168 223 72
f 3429 3430 3431 3432
v 160 223 72
v 160 216 72
v 152 216 72
v 152 223 72
f 3433 3434 3435 3436
v 144 223 56
v 144 216 56
v 168 216 56
v 168 223 56
f 3437 3438 3439 3440
v 160 216 63
v 160 216 56
v 152 216 56
v 152 216 63
f 3441 3442 3443 3444
v 152 223 72
v 152 223 56
v 160 223 56
v 160 223 72
f 3445 3446 3447 3448
v 168 216 72
v 168 223 72
v 168 223 56
v 168 216 56
f 3449 3450 3451 3452
v 144 223 72
v 144 216 72
v 144 216 56
v 144 223 56
f 3453 3454 3455 3456
v 152 223 72
v 144 223 72
v 144 223 56
v 152 223 56
f 3457 3458 3459 3460
v 168 223 72
v 160 223 72
v 160 223 56
v 168 223 56
f 3461 3462 3463 3464
v 160 223 72
v 152 223 72
v 152 223 56
v 160 223 56
f 3465 3466 3467 3468
v 167 226 63
v 167 226 60
v 167 230 60
v 167 230 63
f 3469 3470 3471 3472
v 167 234 63
v 167 234 60
v 167 238 60
v 167 238 63
f 3473 3474 3475 3476
v 167 230 63
v 167 230 60
v 168 230 60
v 168 230 63
f 3477 3478 3479 3480
v 167 238 63
v 167 238 60
v 168 238 60
v 168 238 63
f 3481 3482 3483 3484
v 168 226 63
v 168 226 60
v 167 226 60
v 167 226 63
f 3485 3486 3487 3488
v 168 234 63
v 168 234 60
v 167 234 60
v 167 234 63
f 3489 3490 3491 3492
v 167 238 60
v 167 234 60
v 168 234 60
v 168 238 60
f 3493 3494 3495 3496
v 167 226 63
v 167 230 63
v 168 230 63
v 168 226 63
f 3497 3498 3499 3500
v 167 234 63
v 167 238 63
v 168 238 63
v 168 234 63
f 3501 3502 3503 3504
v 167 230 60
v 167 226 60
v 168 226 60
v 168 230 60
f 3505 3506 3507 3508
v 168 208 72
v 176 208 72
v 176 200 72
v 168 192 72
f 3509 3510 3511 3512
v 168 208 56
v 168 192 56
v 176 200 56
v 176 208 56
f 3513 3514 3515 3516
v 168 192 56
v 168 192 72
v 176 200 72
v 176 200 56
f 3517 3518 3519 3520
v 176 208 72
v 176 208 64
v 176 200 64
v 176 200 72
f 3521 3522 3523 3524
v 184 208 64
v 184 200 64
v 176 200 64
v 176 208 64
f 3525 3526 3527 3528
v 176 208 56
v 176 200 56
v 184 200 56
v 184 208 56
f 3529 3530 3531 3532
v 176 208 64
v 176 208 56
v 184 208 56
v 184 208 64
f 3533 3534 3535 3536
v 184 200 64
v 184 200 56
v 176 200 56
v 176 200 64
f 3537 3538 3539 3540
v 178 200 64
v 182 200 64
v 182 200 56
v 178 200 56
f 3541 3542 3543 3544
v 178 208 64
v 178 208 56
v 182 208 56
v 182 208 64
f 3545 3546 3547 3548
v 184 168 64
v 184 176 64
v 192 176 64
v 192 168 64
f 3549 3550 3551 3552
v 184 176 56
v 184 168 56
v 192 168 56
v 192 176 56
f 3553 3554 3555 3556
v 184 168 64
v 184 168 56
v 184 176 56
v 184 176 64
f 3557 3558 3559 3560
v 184 176 64
v 184 176 56
v 192 176 56
v 192 176 64
f 3561 3562 3563 3564
v 192 208 64
v 192 200 64
v 184 200 64
v 184 208 64
f 3565 3566 3567 3568
v 184 208 56
v 184 200 56
v 192 200 56
v 192 208 56
f 3569 3570 3571 3572
v 184 208 64
v 184 208 56
v 192 208 56
v 192 208 64
f 3573 3574 3575 3576
v 192 200 64
v 192 200 56
v 184 200 56
v 184 200 64
f 3577 3578 3579 3580
v 168 208 72
v 168 216 72
v 176 208 72
f 3581 3582 3583
v 168 208 56
v 176 208 56
v 168 216 56
f 3584 3585 3586
v 176 208 56
v 176 208 72
v 168 216 72
v 168 216 56
f 3587 3588 3589 3590
v 176 216 56
v 176 212 56
v 178 212 56
v 178 216 56
f 3591 3592 3593 3594
v 176 212 56
v 176 212 64
v 178 212 64
v 178 212 56
f 3595 3596 3597 3598
v 176 216 64
v 176 212 64
v 176 212 56
v 176 216 56
f 3599 3600 3601 3602
v 176 212 64
v 176 216 64
v 178 216 64
v 178 212 64
f 3603 3604 3605 3606
v 178 216 56
v 176 216 56
v 176 212 56
v 178 212 56
f 3607 3608 3609 3610
v 178 216 56
v 178 212 56
v 182 212 56
v 182 216 56
f 3611 3612 3613 3614
v 178 212 56
v 178 212 64
v 182 212 64
v 182 212 56
f 3615 3616 3617 3618
v 178 212 64
v 178 216 64
v 182 216 64
v 182 212 64
f 3619 3620 3621 3622
v 182 215 59
v 182 216 59
v 182 216 56
v 182 215 56
f 3623 3624 3625 3626
v 178 216 59
v 178 215 59
v 178 215 56
v 178 216 56
f 3627 3628 3629 3630
v 182 212 56
v 182 216 56
v 178 216 56
v 178 212 56
f 3631 3632 3633 3634
v 182 216 56
v 182 212 56
v 184 212 56
v 184 216 56
f 3635 3636 3637 3638
v 182 212 56
v 182 212 64
v 184 212 64
v 184 212 56
f 3639 3640 3641 3642
v 184 212 64
v 184 216 64
v 184 216 56
v 184 212 56
f 3643 3644 3645 3646
v 182 212 64
v 182 216 64
v 184 216 64
v 184 212 64
f 3647 3648 3649 3650
v 184 212 56
v 184 216 56
v 182 216 56
v 182 212 56
f 3651 3652 3653 3654
v 184 232 64
v 184 216 64
v 176 216 64
v 176 232 64
f 3655 3656 3657 3658
v 176 216 56
v 176 223 56
v 168 223 56
v 168 216 56
f 3659 3660 3661 3662
v 176 225 56
v 176 232 56
v 168 232 56
v 168 225 56
f 3663 3664 3665 3666
v 176 216 64
v 168 216 64
v 168 232 64
v 176 232 64
f 3667 3668 3669 3670
v 176 223 56
v 176 225 56
v 168 225 56
v 168 223 56
f 3671 3672 3673 3674
v 176 216 56
v 184 216 56
v 184 232 56
v 176 232 56
f 3675 3676 3677 3678
v 168 216 64
v 168 216 56
v 168 224 56
v 168 224 64
f 3679 3680 3681 3682
v 184 224 64
v 184 224 56
v 184 216 56
v 184 216 64
f 3683 3684 3685 3686
v 168 232 64
v 168 232 56
v 169 232 56
v 169 232 64
f 3687 3688 3689 3690
v 176 216 64
v 176 216 56
v 168 216 56
v 168 216 64
f 3691 3692 3693 3694
v 169 232 60
v 169 232 56
v 176 232 56
v 176 232 60
f 3695 3696 3697 3698
v 184 216 64
v 184 216 58
v 176 216 58
v 176 216 64
f 3699 3700 3701 3702
v 184 216 58
v 184 216 56
v 182 216 56
v 182 216 58
f 3703 3704 3705 3706
v 178 216 58
v 178 216 56
v 176 216 56
v 176 216 58
f 3707 3708 3709 3710
v 178 219 56
v 181 217 56
v 182 219 56
v 179 221 56
f 3711 3712 3713 3714
v 168 224 64
v 168 224 63
v 168 226 63
v 168 226 64
f 3715 3716 3717 3718
v 168 230 64
v 168 230 63
v 168 232 63
v 168 232 64
f 3719 3720 3721 3722
v 168 226 64
v 168 226 63
v 168 230 63
v 168 230 64
f 3723 3724 3725 3726
v 168 230 63
v 168 230 60
v 168 232 60
v 168 232 63
f 3727 3728 3729 3730
v 168 224 63
v 168 224 60
v 168 226 60
v 168 226 63
f 3731 3732 3733 3734
v 168 230 60
v 168 230 56
v 168 232 56
v 168 232 60
f 3735 3736 3737 3738
v 168 226 60
v 168 226 56
v 168 230 56
v 168 230 60
f 3739 3740 3741 3742
v 168 224 60
v 168 224 56
v 168 226 56
v 168 226 60
f 3743 3744 3745 3746
v 184 232 64
v 183 232 64
v 183 232 56
v 184 232 56
f 3747 3748 3749 3750
v 176 232 60
v 176 232 56
v 183 232 56
v 183 232 60
f 3751 3752 3753 3754
v 178 219 56
v 181 217 56
v 182 219 56
v 179 221 56
f 3755 3756 3757 3758
v 176 248 64
v 184 248 64
v 184 232 64
v 176 232 64
f 3759 3760 3761 3762
v 176 232 64
v 168 232 64
v 168 248 64
v 176 248 64
f 3763 3764 3765 3766
v 184 248 64
v 184 248 56
v 184 240 56
v 184 240 64
f 3767 3768 3769 3770
v 168 240 64
v 168 240 56
v 168 248 56
v 168 248 64
f 3771 3772 3773 3774
v 168 248 64
v 168 248 56
v 184 248 56
v 184 248 64
f 3775 3776 3777 3778
v 168 232 64
v 168 232 63
v 168 234 63
v 168 234 64
f 3779 3780 3781 3782
v 168 238 64
v 168 238 63
v 168 240 63
v 168 240 64
f 3783 3784 3785 3786
v 168 234 64
v 168 234 63
v 168 238 63
v 168 238 64
f 3787 3788 3789 3790
v 168 238 63
v 168 238 60
v 168 240 60
v 168 240 63
f 3791 3792 3793 3794
v 168 232 63
v 168 232 60
v 168 234 60
v 168 234 63
f 3795 3796 3797 3798
v 168 238 60
v 168 238 56
v 168 240 56
v 168 240 60
f 3799 3800 3801 3802
v 168 234 60
v 168 234 56
v 168 238 56
v 168 238 60
f 3803 3804 3805 3806
v 168 232 60
v 168 232 56
v 168 234 56
v 168 234 60
f 3807 3808 3809 3810
v 184 224 64
v 184 232 64
v 192 232 64
v 192 224 64
f 3811 3812 3813 3814
v 184 232 56
v 184 224 56
v 192 224 56
v 192 232 56
f 3815 3816 3817 3818
v 184 232 64
v 184 232 56
v 192 232 56
v 192 232 64
f 3819 3820 3821 3822
v 192 224 64
v 192 224 56
v 184 224 56
v 184 224 64
f 3823 3824 3825 3826
v 186 224 64
v 190 224 64
v 190 224 56
v 186 224 56
f 3827 3828 3829 3830
v 186 232 64
v 186 232 56
v 190 232 56
v 190 232 64
f 3831 3832 3833 3834
v 188 240 64
v 188 232 64
v 184 232 64
v 184 240 64
f 3835 3836 3837 3838
v 184 240 64
v 184 240 56
v 188 240 56
v 188 240 64
f 3839 3840 3841 3842
v 188 240 64
v 188 240 56
v 188 232 56
v 188 232 64
f 3843 3844 3845 3846
v 186 240 64
v 186 240 56
v 188 240 56
v 188 240 64
f 3847 3848 3849 3850
v 192 168 64
v 192 176 64
v 216 176 64
v 216 168 64
f 3851 3852 3853 3854
v 192 176 56
v 192 168 56
v 216 168 56
v 216 176 56
f 3855 3856 3857 3858
v 208 176 64
v 208 176 56
v 216 176 56
v 216 176 64
f 3859 3860 3861 3862
v 216 168 64
v 216 168 56
v 192 168 56
v 192 168 64
f 3863 3864 3865 3866
v 200 176 64
v 200 176 56
v 201 176 56
v 201 176 64
f 3867 3868 3869 3870
v 192 184 64
v 200 184 64
v 200 176 64
v 192 176 64
f 3871 3872 3873 3874
v 192 184 56
v 192 176 56
v 200 176 56
v 200 184 56
f 3875 3876 3877 3878
v 192 176 64
v 192 176 56
v 192 184 56
v 192 184 64
f 3879 3880 3881 3882
v 200 177 64
v 200 177 56
v 200 176 56
v 200 176 64
f 3883 3884 3885 3886
v 201 184 64
v 208 184 64
v 208 176 64
v 201 176 64
f 3887 3888 3889 3890
v 201 176 56
v 208 176 56
v 208 184 56
v 201 184 56
f 3891 3892 3893 3894
v 208 184 64
v 208 184 56
v 208 176 56
v 208 176 64
f 3895 3896 3897 3898
v 201 177 64
v 201 176 64
v 201 176 56
v 201 177 56
f 3899 3900 3901 3902
v 201 176 64
v 200 176 64
v 200 177 64
v 201 177 64
f 3903 3904 3905 3906
v 200 177 56
v 200 176 56
v 201 176 56
v 201 177 56
f 3907 3908 3909 3910
v 200 177 64
v 200 184 64
v 201 184 64
v 201 177 64
f 3911 3912 3913 3914
v 201 184 56
v 200 184 56
v 200 177 56
v 201 177 56
f 3915 3916 3917 3918
v 200 177 64
v 201 177 64
v 201 177 56
v 200 177 56
f 3919 3920 3921 3922
v 192 192 64
v 200 192 64
v 200 184 64
v 192 184 64
f 3923 3924 3925 3926
v 200 192 64
v 208 192 64
v 208 184 64
v 200 184 64
f 3927 3928 3929 3930
v 208 184 56
v 208 192 56
v 192 192 56
v 192 184 56
f 3931 3932 3933 3934
v 200 192 64
v 200 192 56
v 208 192 56
v 208 192 64
f 3935 3936 3937 3938
v 192 184 64
v 192 184 56
v 192 192 56
v 192 192 64
f 3939 3940 3941 3942
v 192 192 64
v 192 192 56
v 200 192 56
v 200 192 64
f 3943 3944 3945 3946
v 192 184 56
v 200 184 56
v 200 192 56
v 192 192 56
f 3947 3948 3949 3950
v 192 184 64
v 192 184 56
v 192 192 56
v 192 192 64
f 3951 3952 3953 3954
v 192 192 64
v 192 192 56
v 200 192 56
v 200 192 64
f 3955 3956 3957 3958
v 192 192 64
v 200 192 64
v 200 184 64
v 192 184 64
f 3959 3960 3961 3962
v 216 192 64
v 216 184 64
v 208 184 64
v 208 192 64
f 3963 3964 3965 3966
v 208 192 56
v 208 184 56
v 216 184 56
v 216 192 56
f 3967 3968 3969 3970
v 216 184 64
v 216 184 56
v 208 184 56
v 208 184 64
f 3971 3972 3973 3974
v 208 192 64
v 208 192 56
v 216 192 56
v 216 192 64
f 3975 3976 3977 3978
v 210 184 64
v 214 184 64
v 214 184 56
v 210 184 56
f 3979 3980 3981 3982
v 210 192 64
v 210 192 56
v 214 192 56
v 214 192 64
f 3983 3984 3985 3986
v 215 200 64
v 192 200 64
v 192 208 64
v 215 208 64
f 3987 3988 3989 3990
v 216 200 64
v 215 200 64
v 215 208 64
v 216 208 64
f 3991 3992 3993 3994
v 215 208 56
v 215 200 56
v 216 200 56
v 216 208 56
f 3995 3996 3997 3998
v 192 208 56
v 192 200 56
v 215 200 56
v 215 208 56
f 3999 4000 4001 4002
v 216 200 64
v 216 200 56
v 192 200 56
v 192 200 64
f 4003 4004 4005 4006
v 215 208 64
v 215 208 56
v 216 208 56
v 216 208 64
f 4007 4008 4009 4010
v 215 216 64
v 215 208 64
v 192 208 64
v 192 216 64
v 208 216 64
f 4011 4012 4013 4014 4015
v 215 216 56
v 192 216 56
v 192 208 56
v 215 208 56
f 4016 4017 4018 4019
v 215 216 64
v 215 216 56
v 215 208 56
v 215 208 64
f 4020 4021 4022 4023
v 192 208 64
v 192 208 56
v 192 216 56
v 192 216 64
f 4024 4025 4026 4027
v 207 216 64
v 207 216 56
v 208 216 56
v 208 216 64
f 4028 4029 4030 4031
v 200 216 64
v 200 216 56
v 201 216 56
v 201 216 64
f 4032 4033 4034 4035
v 200 216 64
v 192 216 64
v 192 217 64
v 200 217 64
f 4036 4037 4038 4039
v 192 217 56
v 192 216 56
v 200 216 56
v 200 217 56
f 4040 4041 4042 4043
v 192 216 64
v 192 216 56
v 192 217 56
v 192 217 64
f 4044 4045 4046 4047
v 200 217 64
v 200 217 56
v 200 216 56
v 200 216 64
f 4048 4049 4050 4051
v 201 217 64
v 201 216 64
v 200 216 64
v 200 217 64
f 4052 4053 4054 4055
v 200 217 56
v 200 216 56
v 201 216 56
v 201 217 56
f 4056 4057 4058 4059
v 207 217 64
v 207 216 64
v 201 216 64
v 201 217 64
f 4060 4061 4062 4063
v 201 217 56
v 201 216 56
v 207 216 56
v 207 217 56
f 4064 4065 4066 4067
v 207 217 64
v 207 217 56
v 207 216 56
v 207 216 64
f 4068 4069 4070 4071
v 201 217 64
v 201 216 64
v 201 216 56
v 201 217 56
f 4072 4073 4074 4075
v 208 217 64
v 208 216 64
v 207 216 64
v 207 217 64
f 4076 4077 4078 4079
v 207 217 56
v 207 216 56
v 208 216 56
v 208 217 56
f 4080 4081 4082 4083
v 215 217 64
v 215 216 64
v 208 216 64
v 208 217 64
f 4084 4085 4086 4087
v 208 216 56
v 215 216 56
v 215 217 56
v 208 217 56
f 4088 4089 4090 4091
v 215 217 64
v 215 217 56
v 215 216 56
v 215 216 64
f 4092 4093 4094 4095
v 208 217 64
v 208 216 64
v 208 216 56
v 208 217 56
f 4096 4097 4098 4099
v 215 232 64
v 215 217 64
v 192 217 64
v 192 232 64
v 200 232 64
f 4100 4101 4102 4103 4104
v 192 232 56
v 192 217 56
v 215 217 56
v 215 232 56
v 208 232 56
f 4105 4106 4107 4108 4109
v 192 217 64
v 192 217 56
v 192 224 56
v 192 224 64
f 4110 4111 4112 4113
v 215 232 64
v 215 232 56
v 215 224 56
v 215 224 64
f 4114 4115 4116 4117
v 200 232 64
v 200 232 56
v 208 232 56
v 208 232 64
f 4118 4119 4120 4121
v 215 224 64
v 215 224 56
v 215 217 56
v 215 217 64
f 4122 4123 4124 4125
v 200 217 64
v 201 217 64
v 201 217 56
v 200 217 56
f 4126 4127 4128 4129
v 207 217 64
v 208 217 64
v 208 217 56
v 207 217 56
f 4130 4131 4132 4133
v 192 232 64
v 192 232 56
v 200 232 56
v 200 232 64
f 4134 4135 4136 4137
v 208 232 64
v 208 232 56
v 215 232 56
v 215 232 64
f 4138 4139 4140 4141
v 192 232 64
v 192 240 64
v 200 232 64
f 4142 4143 4144
v 192 240 64
v 192 240 48
v 200 232 48
v 200 232 64
f 4145 4146 4147 4148
v 192 232 64
v 192 232 48
v 192 240 48
v 192 240 64
f 4149 4150 4151 4152
v 215 232 64
v 208 232 64
v 215 240 64
f 4153 4154 4155
v 208 232 64
v 208 232 48
v 215 240 48
v 215 240 64
f 4156 4157 4158 4159
v 215 240 64
v 215 240 48
v 215 232 48
v 215 232 64
f 4160 4161 4162 4163
v 224 176 64
v 216 176 64
v 216 200 64
v 224 200 64
f 4164 4165 4166 4167
v 216 168 64
v 216 176 64
v 224 176 64
v 224 168 64
f 4168 4169 4170 4171
v 216 176 56
v 216 168 56
v 224 168 56
v 224 176 56
f 4172 4173 4174 4175
v 216 176 56
v 224 176 56
v 224 200 56
v 216 200 56
f 4176 4177 4178 4179
v 224 176 64
v 224 176 56
v 224 168 56
v 224 168 64
f 4180 4181 4182 4183
v 224 200 64
v 224 200 56
v 224 192 56
v 224 192 64
f 4184 4185 4186 4187
v 216 176 64
v 216 176 56
v 216 184 56
v 216 184 64
f 4188 4189 4190 4191
v 216 192 64
v 216 192 56
v 216 200 56
v 216 200 64
f 4192 4193 4194 4195
v 224 185 64
v 224 185 56
v 224 184 56
v 224 184 64
f 4196 4197 4198 4199
v 232 176 64
v 240 176 64
v 240 168 64
v 232 168 64
f 4200 4201 4202 4203
v 240 168 56
v 240 176 56
v 232 176 56
v 232 168 56
f 4204 4205 4206 4207
v 232 168 64
v 232 168 56
v 232 176 56
v 232 176 64
f 4208 4209 4210 4211
v 240 176 64
v 240 176 56
v 240 168 56
v 240 168 64
f 4212 4213 4214 4215
v 224 184 64
v 240 184 64
v 240 176 64
v 224 176 64
f 4216 4217 4218 4219
v 224 176 56
v 240 176 56
v 240 184 56
v 224 184 56
f 4220 4221 4222 4223
v 240 184 64
v 240 184 56
v 240 176 56
v 240 176 64
f 4224 4225 4226 4227
v 232 176 64
v 232 176 56
v 224 176 56
v 224 176 64
f 4228 4229 4230 4231
v 224 184 64
v 224 184 56
v 225 184 56
v 225 184 64
f 4232 4233 4234 4235
v 224 192 64
v 240 192 64
v 240 185 64
v 224 185 64
f 4236 4237 4238 4239
v 224 185 56
v 240 185 56
v 240 192 56
v 224 192 56
f 4240 4241 4242 4243
v 240 192 64
v 240 192 56
v 240 185 56
v 240 185 64
f 4244 4245 4246 4247
v 224 192 64
v 224 192 56
v 240 192 56
v 240 192 64
f 4248 4249 4250 4251
v 224 185 64
v 225 185 64
v 225 185 56
v 224 185 56
f 4252 4253 4254 4255
v 224 184 64
v 224 185 64
v 225 185 64
v 225 184 64
f 4256 4257 4258 4259
v 224 185 56
v 224 184 56
v 225 184 56
v 225 185 56
f 4260 4261 4262 4263
v 225 185 64
v 240 185 64
v 240 184 64
v 225 184 64
f 4264 4265 4266 4267
v 225 184 56
v 240 184 56
v 240 185 56
v 225 185 56
f 4268 4269 4270 4271
v 240 185 64
v 240 185 56
v 240 184 56
v 240 184 64
f 4272 4273 4274 4275
v 225 185 64
v 225 184 64
v 225 184 56
v 225 185 56
f 4276 4277 4278 4279
v 216 208 64
v 216 232 64
v 224 232 64
v 224 208 64
f 4280 4281 4282 4283
v 224 240 64
v 224 232 64
v 216 232 64
v 216 240 64
f 4284 4285 4286 4287
v 224 208 64
v 224 200 64
v 216 200 64
v 216 208 64
f 4288 4289 4290 4291
v 216 200 56
v 224 200 56
v 224 208 56
v 216 208 56
f 4292 4293 4294 4295
v 216 208 56
v 224 208 56
v 224 232 56
v 216 232 56
f 4296 4297 4298 4299
v 216 240 56
v 216 232 56
v 224 232 56
v 224 240 56
f 4300 4301 4302 4303
v 216 208 64
v 216 208 56
v 216 240 56
v 216 240 64
f 4304 4305 4306 4307
v 224 208 64
v 224 208 56
v 224 200 56
v 224 200 64
f 4308 4309 4310 4311
v 224 240 64
v 224 240 56
v 224 232 56
v 224 232 64
f 4312 4313 4314 4315
v 216 240 64
v 216 240 56
v 224 240 56
v 224 240 64
f 4316 4317 4318 4319
v 232 232 64
v 232 208 64
v 224 208 64
v 224 232 64
f 4320 4321 4322 4323
v 224 232 56
v 224 208 56
v 232 208 56
v 232 232 56
f 4324 4325 4326 4327
v 232 224 64
v 232 224 56
v 232 216 56
v 232 216 64
f 4328 4329 4330 4331
v 232 232 64
v 232 232 56
v 232 224 56
v 232 224 64
f 4332 4333 4334 4335
v 224 232 64
v 224 232 56
v 232 232 56
v 232 232 64
f 4336 4337 4338 4339
v 232 208 64
v 232 208 56
v 224 208 56
v 224 208 64
f 4340 4341 4342 4343
v 240 216 64
v 240 208 64
v 232 208 64
v 232 216 64
f 4344 4345 4346 4347
v 232 216 56
v 232 208 56
v 240 208 56
v 240 216 56
f 4348 4349 4350 4351
v 232 216 64
v 232 216 56
v 240 216 56
v 240 216 64
f 4352 4353 4354 4355
v 240 208 64
v 240 208 56
v 232 208 56
v 232 208 64
f 4356 4357 4358 4359
v 234 208 64
v 238 208 64
v 238 208 56
v 234 208 56
f 4360 4361 4362 4363
v 234 216 64
v 234 216 56
v 238 216 56
v 238 216 64
f 4364 4365 4366 4367
v 248 216 64
v 248 200 64
v 240 200 64
v 240 216 64
f 4368 4369 4370 4371
v 240 216 56
v 240 200 56
v 248 200 56
v 248 216 56
f 4372 4373 4374 4375
v 240 200 64
v 240 200 56
v 240 208 56
v 240 208 64
f 4376 4377 4378 4379
v 248 216 64
v 248 216 56
v 248 200 56
v 248 200 64
f 4380 4381 4382 4383
v 240 216 64
v 240 216 56
v 248 216 56
v 248 216 64
f 4384 4385 4386 4387
v 248 200 64
v 248 200 56
v 240 200 56
v 240 200 64
f 4388 4389 4390 4391